<?xml version="1.0" encoding="UTF-8" standalone="no"?><!DOCTYPE svg PUBLIC "-//W3C//DTD SVG 1.1//EN" "http://www.w3.org/Graphics/SVG/1.1/DTD/svg11.dtd"><svg width="100%" height="100%" viewBox="0 0 4177 4314" version="1.1" xmlns="http://www.w3.org/2000/svg" xmlns:xlink="http://www.w3.org/1999/xlink" xml:space="preserve" xmlns:serif="http://www.serif.com/" style="fill-rule:evenodd;clip-rule:evenodd;stroke-linecap:round;stroke-linejoin:round;stroke-miterlimit:10;"><rect id="ArtBoard1" x="0" y="0" width="4176.73" height="4313.43" style="fill:none;"/><clipPath id="_clip1"><rect x="0" y="0" width="4176.73" height="4313.43"/></clipPath><g clip-path="url(#_clip1)"><rect x="1.138" y="3.743" width="4176.73" height="4283.73" style="fill:#fff;"/><path d="M1739.98,3549.18l442.165,-0c-408.741,-708.148 -931.511,-1122.31 -1568.31,-1242.49" style="fill:none;fill-rule:nonzero;stroke:#000;stroke-width:4.17px;"/><path d="M2967.48,2107.6c-71.22,148.534 -128.122,324.88 -170.724,529.037c-22.089,296.088 -19.922,600.266 6.493,912.541l57.201,-0" style="fill:none;fill-rule:nonzero;stroke:#000;stroke-width:4.17px;"/><path d="M3012.46,1501.76c-114.52,364.072 -186.42,742.371 -215.701,1134.88c42.602,-204.157 99.504,-380.503 170.724,-529.037" style="fill:none;fill-rule:nonzero;stroke:#000;stroke-width:4.17px;"/><path d="M1711.11,3549.18l713.262,-0c-17.401,-86.092 -35.637,-173.217 -54.707,-261.395c-255.627,-909.485 -741.69,-1510.13 -1458.18,-1801.94" style="fill:none;fill-rule:nonzero;stroke:#000;stroke-width:4.17px;"/><path d="M2422.65,3549.18l206.768,-0c-5.042,-42.81 -10.328,-85.911 -15.851,-129.319c-106.159,-669.564 -259.689,-1208.12 -460.6,-1615.68" style="fill:none;fill-rule:nonzero;stroke:#000;stroke-width:4.17px;"/><path d="M3633.2,1533.6c-526.824,109.914 -830.203,654.248 -910.128,1632.99c-13.339,125.973 -25.046,253.497 -35.112,382.589l250.259,-0" style="fill:none;fill-rule:nonzero;stroke:#000;stroke-width:4.17px;"/><path d="M421.893,2375.93l-9.974,-0.907l-10.882,-1.813l-9.975,-1.814l-9.975,-2.72l-9.975,-2.721l-9.974,-3.627l-9.975,-3.627l-9.068,-3.628l-9.975,-4.533l-8.161,-4.534l-9.068,-5.441l-8.161,-5.441l-8.162,-6.348l-8.161,-5.44l-7.254,-6.348l-7.255,-7.255l-6.347,-7.254l-6.348,-7.254l-5.441,-7.254l-5.44,-7.255l-4.535,-8.161l-4.533,-8.162l-4.534,-8.161l-3.628,-8.161l-2.72,-9.068l-2.72,-8.161l-1.814,-9.068l-0.907,-8.161l-0.907,-9.068l-0.907,-9.068l0,-8.161l0.907,-9.068l0.907,-9.069l1.814,-8.161l1.813,-9.068l5.441,-16.322l3.627,-8.162l4.534,-8.16l4.534,-7.255l4.534,-8.161l5.441,-7.254l6.348,-7.255l6.348,-6.347l6.347,-6.348l7.254,-6.348l7.255,-6.347l16.322,-10.882l8.162,-4.534l9.068,-4.534l9.067,-4.534l9.068,-3.627l9.975,-3.627l9.068,-2.721l9.975,-2.72l9.975,-2.721l10.881,-1.813l9.975,-0.907l9.975,-0.907l10.882,-0.907l10.881,0l9.975,0.907l10.882,-0l9.975,1.814l10.881,1.813l9.975,1.814l9.975,2.72l9.974,2.721l9.975,2.72l9.975,4.534l9.068,3.627l9.068,4.534l9.068,4.534l9.068,5.441l16.323,10.882l8.161,6.347l7.254,6.348l6.348,7.254l7.254,7.255l6.348,7.254l10.882,14.509l4.534,8.161l4.534,8.161l7.254,16.323l3.627,9.068l1.814,8.161l2.72,9.068l0.907,8.161l0.907,9.068l0.907,9.068l-0,8.162l-1.814,18.135l-3.627,16.323l-2.721,9.068l-10.881,24.484l-4.534,7.254l-5.441,8.161l-5.441,7.255l-5.441,6.347l-6.347,7.255l-6.348,6.347l-7.254,6.348l-7.255,6.348l-8.161,5.44l-8.161,5.441l-8.161,4.534l-9.068,4.534l-9.068,4.534l-9.068,3.627l-9.975,3.627l-9.975,2.721l-9.068,2.72l-10.882,2.721l-9.974,0.906l-9.975,1.814l-10.882,0.907l-9.975,0.906l-10.881,0l-9.975,-0.906l-10.882,-0.907Z" style="fill:#e9f6ff;stroke:#000;stroke-width:4.17px;"/><path d="M480.531,2024.39c10.801,15.46 18.67,32.554 23.604,51.288c7.226,27.431 7.161,54.653 -0.195,81.667c-7.357,27.013 -21.018,50.191 -40.986,69.542c-19.967,19.351 -43.564,32.283 -70.792,38.784c-27.228,6.502 -54.439,5.722 -81.632,-2.366c-27.193,-8.08 -50.725,-22.371 -70.598,-42.883c-5.353,-5.523 -10.248,-11.299 -14.683,-17.32" style="fill:#fff;stroke:#000;stroke-width:4.17px;stroke-linecap:butt;stroke-miterlimit:2;"/><path d="M480.531,2024.39c10.801,15.461 18.67,32.554 23.604,51.289c7.226,27.431 7.161,54.653 -0.195,81.666c-7.357,27.014 -21.018,50.192 -40.986,69.543c-19.967,19.351 -43.564,32.282 -70.792,38.784c-27.229,6.501 -54.439,5.722 -81.632,-2.367c-27.193,-8.08 -50.726,-22.371 -70.598,-42.883c-5.353,-5.522 -10.248,-11.298 -14.683,-17.32" style="fill:none;fill-rule:nonzero;stroke:#000;stroke-width:4.17px;"/><path d="M225.249,2203.11c-1.473,-68.772 30.037,-120.922 94.529,-156.469c51.737,-25.898 105.321,-33.315 160.753,-22.243c-9.1,20.149 -48.738,55.024 -118.913,104.608c-69.845,49.312 -115.301,74.022 -136.369,74.104" style="fill:#fff;stroke:#000;stroke-width:4.17px;stroke-linecap:butt;stroke-miterlimit:2;"/><path d="M3092.42,1458.7c-0,-32.582 -35.2,-59.395 -77.983,-59.395c-42.784,-0 -77.984,26.813 -77.984,59.395c0,32.581 35.2,59.395 77.984,59.395c42.783,0 77.983,-26.814 77.983,-59.395" style="fill:#e9f6ff;stroke:#000;stroke-width:4.17px;stroke-linecap:butt;stroke-miterlimit:2;"/><path d="M3092.42,1458.7c-0,-32.582 -35.202,-59.396 -77.985,-59.396c-42.783,0 -77.985,26.814 -77.985,59.396c-0,32.581 35.202,59.395 77.985,59.395c42.783,0 77.985,-26.814 77.985,-59.395" style="fill:none;fill-rule:nonzero;stroke:#000;stroke-width:4.17px;"/><path d="M2430.46,1596.54c0,-171.376 -169.262,-312.393 -374.963,-312.393c-205.698,-0 -374.962,141.017 -374.962,312.393c0,171.376 169.264,312.393 374.962,312.393c205.701,-0 374.963,-141.017 374.963,-312.393" style="fill:#e9f6ff;stroke:#000;stroke-width:4.17px;stroke-linecap:butt;stroke-miterlimit:2;"/><path d="M2430.46,1596.54c0,-171.376 -169.263,-312.393 -374.962,-312.393c-205.699,0 -374.962,141.017 -374.962,312.393c-0,171.377 169.263,312.393 374.962,312.393c205.699,0 374.962,-141.016 374.962,-312.393" style="fill:none;fill-rule:nonzero;stroke:#000;stroke-width:4.17px;"/><path d="M2336.15,1515.38c0,-125.855 -126.896,-229.421 -281.108,-229.421c-154.211,0 -281.108,103.566 -281.108,229.421c-0,125.855 126.897,229.42 281.108,229.42c154.212,0 281.108,-103.565 281.108,-229.42" style="fill:#fff;stroke:#000;stroke-width:4.17px;"/><path d="M2019.88,1602.26c-19.759,23.205 -39.546,46.419 -59.368,69.643c-24.983,58.035 -15.906,92.403 27.213,103.13c142.068,1.659 211.919,-6.946 209.552,-25.844c17.638,-73.65 -22.715,-129.7 -121.067,-168.121c-14.164,-1.55 -25.381,-0.299 -33.651,3.736c-8.071,3.709 -15.633,9.531 -22.679,17.456" style="fill:none;fill-rule:nonzero;stroke:#aaa;stroke-width:4.17px;"/><path d="M2073.18,1543.49c-0,-13.429 -9.214,-24.483 -20.403,-24.483c-11.19,-0 -20.403,11.054 -20.403,24.483c-0,13.43 9.213,24.484 20.403,24.484c11.189,0 20.403,-11.054 20.403,-24.484" style="fill:none;fill-rule:nonzero;stroke:#aaa;stroke-width:4.17px;"/><path d="M1986.22,1708.58c0.907,32.282 27.54,46.437 79.899,42.456c58.978,-4.788 93.183,-16.685 102.604,-35.674c-0.317,-20.112 -6.438,-40.28 -18.363,-60.51c-12.314,-19.406 -27.875,-31.113 -46.682,-35.13" style="fill:none;fill-rule:nonzero;stroke:#aaa;stroke-width:4.17px;"/><path d="M2038.23,1720.52c3.183,-15.234 15.806,-25.236 37.887,-30.024c22.08,6.719 34.712,13.121 37.886,19.206" style="fill:none;fill-rule:nonzero;stroke:#aaa;stroke-width:4.17px;"/><path d="M1986.22,1708.58c0.182,-9.059 6.366,-22.217 18.572,-39.473c10.573,-21.609 19.043,-33.752 25.39,-36.427" style="fill:none;fill-rule:nonzero;stroke:#aaa;stroke-width:4.17px;"/><path d="M2030.19,1632.68c0.454,0.943 0.943,1.877 1.478,2.811c0.526,0.934 0.816,1.914 0.862,2.938" style="fill:none;fill-rule:nonzero;stroke:#aaa;stroke-width:4.17px;"/><path d="M262.568,2153.57c28.214,-20.938 70.705,-35.964 127.475,-45.077" style="fill:none;fill-rule:nonzero;stroke:#ddd;stroke-width:4.17px;"/><path d="M225.249,2203.11c3.925,-12.214 10.422,-23.368 19.49,-33.461" style="fill:none;fill-rule:nonzero;stroke:#ddd;stroke-width:4.17px;"/><path d="M353.637,2122c15.813,0.2 30.146,6.348 43,18.445c12.853,12.105 26.692,20.557 41.517,25.372c-11.942,-6.847 -29.159,-10.138 -51.651,-9.875c-21.286,1.596 -37.888,-3.727 -49.807,-15.969c4.142,0.816 6.599,-2.312 7.372,-9.385c1.564,-5.722 4.753,-8.579 9.569,-8.588" style="fill:none;fill-rule:nonzero;stroke:#aaa;stroke-width:4.17px;"/><path d="M330.306,2129.28l1.814,-2.721l4.534,-0.906l3.627,1.813l0.907,4.534l-1.814,2.721l-4.534,-0l-3.627,-1.814l-0.907,-3.627Z" style="fill:none;fill-rule:nonzero;stroke:#aaa;stroke-width:4.17px;"/><path d="M985.017,1332.21c-0,-122.373 -120.958,-223.073 -267.96,-223.073c-146.999,-0 -267.959,100.7 -267.959,223.073c-0,122.373 120.96,223.073 267.959,223.073c147.002,0 267.96,-100.7 267.96,-223.073" style="fill:#e9f6ff;stroke:#000;stroke-width:4.17px;"/><path d="M748.505,1110.45c15.28,17.954 27.113,38.285 35.483,61.01c12.251,33.27 15.416,67.157 9.476,101.643c-5.939,34.486 -20.176,64.954 -42.719,91.405c-22.543,26.461 -50.364,45.359 -83.47,56.694c-33.106,11.335 -67.058,13.592 -101.857,6.773c-34.8,-6.819 -65.784,-21.799 -92.951,-44.95c-7.319,-6.23 -14.097,-12.84 -20.334,-19.804" style="fill:#fff;stroke:#000;stroke-width:4.17px;stroke-linecap:butt;stroke-miterlimit:2;"/><path d="M748.505,1110.45c15.279,17.954 27.113,38.285 35.483,61.009c12.251,33.271 15.416,67.158 9.476,101.644c-5.94,34.485 -20.176,64.954 -42.719,91.405c-22.544,26.461 -50.364,45.358 -83.471,56.693c-33.105,11.335 -67.057,13.593 -101.857,6.774c-34.799,-6.819 -65.783,-21.799 -92.951,-44.95c-7.318,-6.23 -14.097,-12.84 -20.333,-19.805" style="fill:none;fill-rule:nonzero;stroke:#000;stroke-width:4.17px;"/><path d="M452.133,1363.22c-10.02,-85.394 22.979,-154.048 98.996,-205.953c61.292,-38.394 127.085,-54 197.376,-46.818c-8.923,26.161 -54.092,74.267 -135.51,144.327c-81.037,69.678 -134.657,105.823 -160.862,108.444" style="fill:#fff;stroke:#000;stroke-width:4.17px;stroke-linecap:butt;stroke-miterlimit:2;"/><path d="M686.189,1365.01c0.998,2.494 9.838,-1.515 26.515,-12.024c13.394,-10.456 23.94,-19.179 31.657,-26.152c25.499,-21.41 28.655,-35.456 9.467,-42.13c-25.681,-11.209 -40.317,-11.154 -43.899,0.154c-3.908,9.657 -4.706,23.948 -2.384,42.873c1.505,18.916 -0.989,29.471 -7.472,31.657" style="fill:none;fill-rule:nonzero;stroke:#aaa;stroke-width:4.17px;"/><path d="M686.189,1365.01c-19.114,-15.497 -28.061,-39.41 -26.843,-71.737c1.195,-32.282 -19.605,-33.434 -62.398,-3.464c-2.935,1.886 -7.021,4.28 -12.259,7.182c-4.769,3.192 -8.146,5.749 -10.13,7.662c-0.67,0.753 -6.156,4.045 -16.459,9.875c-9.839,6.13 -16.17,10.392 -18.994,12.795c-0.248,0.172 -0.408,0.209 -0.477,0.1" style="fill:none;fill-rule:nonzero;stroke:#aaa;stroke-width:4.17px;"/><path d="M475.016,1355.37c-1.038,8.043 2.418,15.515 10.367,22.407c7.952,6.9 12.584,13.765 13.896,20.611c5.173,-7.49 18.143,-21.836 38.909,-43.046c20.764,-21.201 33.024,-33.189 36.78,-35.945c12.175,0.644 30.009,6.075 53.501,16.277c23.488,10.21 39.919,18.997 49.291,26.361l0.121,0.362" style="fill:none;fill-rule:nonzero;stroke:#aaa;stroke-width:4.17px;"/><path d="M538.629,1327.42c-0.89,-8.615 -4.429,-17.256 -10.617,-25.944c-6.189,-8.678 -9.729,-17.746 -10.619,-27.186" style="fill:none;fill-rule:nonzero;stroke:#aaa;stroke-width:4.17px;"/><path d="M751.062,1267.82l-5.441,-8.161l0.907,-11.789l8.161,-9.068l9.068,-0.906l6.348,7.254l-1.814,11.788l-7.254,9.975l-9.975,0.907Z" style="fill:none;fill-rule:nonzero;stroke:#aaa;stroke-width:4.17px;"/><path d="M498.123,1305.81c-15.939,-0 -28.859,12.922 -28.859,28.863c-0,15.933 12.92,28.855 28.859,28.855c15.937,-0 28.858,-12.922 28.858,-28.855c-0,-15.941 -12.921,-28.863 -28.858,-28.863" style="fill:none;fill-rule:nonzero;stroke:#aaa;stroke-width:4.17px;"/><path d="M498.065,1334.93l10.881,-38.085" style="fill:none;fill-rule:nonzero;stroke:#aaa;stroke-width:4.17px;"/><path d="M508.946,1296.84l12.695,5.44l0,-4.534l-7.254,-2.72l-0,7.254l7.254,2.721l0,-2.721" style="fill:none;fill-rule:nonzero;stroke:#aaa;stroke-width:4.17px;"/><path d="M498.065,1334.93l-17.23,34.459" style="fill:none;fill-rule:nonzero;stroke:#aaa;stroke-width:4.17px;"/><path d="M480.835,1369.38l-11.788,-5.441l-0,4.534l7.254,2.72l0,-7.254l-7.254,-2.721l-0,2.721" style="fill:none;fill-rule:nonzero;stroke:#aaa;stroke-width:4.17px;"/><path d="M3923.96,1460.97c0,-85.566 -84.533,-155.97 -187.254,-155.97c-102.721,0 -187.254,70.404 -187.254,155.97c0,85.566 84.533,155.97 187.254,155.97c102.721,-0 187.254,-70.404 187.254,-155.97" style="fill:#e9f6ff;stroke:#000;stroke-width:4.17px;"/><path d="M3714.72,1306.08c-10.7,12.569 -18.979,26.796 -24.838,42.702c-8.579,23.295 -10.791,47.008 -6.637,71.147c4.163,24.148 14.125,45.476 29.904,63.993c15.779,18.517 35.259,31.747 58.433,39.682c23.171,7.934 46.938,9.521 71.296,4.742c24.363,-4.769 46.046,-15.261 65.071,-31.466c5.125,-4.361 9.867,-8.986 14.229,-13.865" style="fill:#fff;stroke:#000;stroke-width:4.17px;stroke-linecap:butt;stroke-miterlimit:2;"/><path d="M3714.72,1306.08c-10.7,12.568 -18.98,26.796 -24.837,42.701c-8.579,23.296 -10.791,47.009 -6.638,71.148c4.162,24.148 14.128,45.476 29.906,63.993c15.778,18.517 35.256,31.747 58.434,39.681c23.169,7.935 46.936,9.522 71.293,4.743c24.366,-4.77 46.047,-15.262 65.072,-31.466c5.123,-4.362 9.866,-8.987 14.228,-13.865" style="fill:none;fill-rule:nonzero;stroke:#000;stroke-width:4.17px;"/><path d="M3922.18,1483.02c7.017,-59.776 -16.087,-107.828 -69.3,-144.163c-42.9,-26.878 -88.958,-37.805 -138.158,-32.772c6.246,18.309 37.867,51.987 94.858,101.027c56.721,48.777 94.255,74.077 112.6,75.908" style="fill:#fff;stroke:#000;stroke-width:4.17px;stroke-linecap:butt;stroke-miterlimit:2;"/><path d="M3758.35,1484.27c-0.707,1.741 -6.892,-1.061 -18.571,-8.415c-9.368,-7.318 -16.749,-13.42 -22.153,-18.308c-17.846,-14.99 -20.059,-24.819 -6.629,-29.489c17.982,-7.844 28.22,-7.808 30.731,0.109c2.739,6.755 3.292,16.766 1.669,30.006c-1.052,13.248 0.689,20.629 5.232,22.162" style="fill:none;fill-rule:nonzero;stroke:#aaa;stroke-width:4.17px;"/><path d="M3758.35,1484.27c13.375,-10.845 19.641,-27.585 18.789,-50.218c-0.843,-22.598 13.72,-23.405 43.671,-2.422c2.059,1.324 4.915,3.002 8.588,5.033c3.337,2.231 5.704,4.017 7.091,5.359c0.463,0.526 4.307,2.83 11.516,6.91c6.892,4.289 11.326,7.273 13.294,8.959c0.181,0.118 0.29,0.146 0.336,0.073" style="fill:none;fill-rule:nonzero;stroke:#aaa;stroke-width:4.17px;"/><path d="M3906.17,1477.52c0.725,5.631 -1.696,10.854 -7.255,15.687c-5.568,4.825 -8.814,9.64 -9.73,14.428c-3.618,-5.242 -12.704,-15.289 -27.24,-30.133c-14.527,-14.845 -23.114,-23.233 -25.744,-25.164c-8.524,0.453 -21.002,4.253 -37.451,11.398c-16.44,7.146 -27.939,13.294 -34.504,18.445l-0.081,0.263" style="fill:none;fill-rule:nonzero;stroke:#aaa;stroke-width:4.17px;"/><path d="M3861.63,1457.96c0.625,-6.03 3.101,-12.088 7.435,-18.163c4.335,-6.076 6.81,-12.423 7.436,-19.034" style="fill:none;fill-rule:nonzero;stroke:#aaa;stroke-width:4.17px;"/><path d="M3703.61,1394.78l7.255,0.907l5.441,6.348l0.906,9.068l-4.534,5.44l-6.347,-0.906l-5.441,-6.348l-0.907,-9.068l3.627,-5.441Z" style="fill:none;fill-rule:nonzero;stroke:#aaa;stroke-width:4.17px;"/><path d="M3889.99,1442.84c11.163,-0 20.204,9.04 20.204,20.194c-0,11.163 -9.041,20.204 -20.204,20.204c-11.153,-0 -20.203,-9.041 -20.203,-20.204c-0,-11.154 9.05,-20.194 20.203,-20.194" style="fill:none;fill-rule:nonzero;stroke:#aaa;stroke-width:4.17px;"/><path d="M3890.41,1462.79l-8.161,-26.297" style="fill:none;fill-rule:nonzero;stroke:#aaa;stroke-width:4.17px;"/><path d="M3882.24,1436.49l-8.161,3.627l0,-2.72l4.534,-2.721l0,5.441l-4.534,2.721l0,-2.721" style="fill:none;fill-rule:nonzero;stroke:#aaa;stroke-width:4.17px;"/><path d="M3890.41,1462.79l11.789,24.484" style="fill:none;fill-rule:nonzero;stroke:#aaa;stroke-width:4.17px;"/><path d="M3902.2,1487.27l8.161,-3.627l0,2.72l-5.441,2.72l0,-5.44l5.441,-1.814l0,1.814" style="fill:none;fill-rule:nonzero;stroke:#aaa;stroke-width:4.17px;"/><path d="M293.762,2140.44c37.178,0.472 70.877,14.926 101.097,43.373c30.217,28.455 62.752,48.332 97.604,59.64c-28.073,-16.078 -68.551,-23.822 -121.431,-23.214c-50.043,3.763 -89.075,-8.751 -117.098,-37.551c9.74,1.941 15.517,-5.413 17.333,-22.062c3.676,-13.43 11.175,-20.167 22.495,-20.186" style="fill:none;fill-rule:nonzero;stroke:#aaa;stroke-width:4.17px;"/><path d="M237.813,2157.39l5.44,-7.255l10.882,-0.907l9.068,4.534l1.814,9.068l-5.441,7.255l-9.975,0.907l-9.068,-5.441l-2.72,-8.161Z" style="fill:none;fill-rule:nonzero;stroke:#aaa;stroke-width:4.17px;"/><path d="M1433.88,3549.33l1868.01,-0" style="fill:none;fill-rule:nonzero;stroke:#000;stroke-width:4.17px;"/></g></svg>