<?xml version="1.0" encoding="UTF-8" standalone="no"?><!DOCTYPE svg PUBLIC "-//W3C//DTD SVG 1.1//EN" "http://www.w3.org/Graphics/SVG/1.1/DTD/svg11.dtd"><svg width="100%" height="100%" viewBox="0 0 4692 824" version="1.1" xmlns="http://www.w3.org/2000/svg" xmlns:xlink="http://www.w3.org/1999/xlink" xml:space="preserve" xmlns:serif="http://www.serif.com/" style="fill-rule:evenodd;clip-rule:evenodd;stroke-linejoin:round;stroke-miterlimit:2;"><rect id="_3" serif:id="3" x="-132.029" y="-142.976" width="4960.63" height="3507.87" style="fill:none;"/><g transform="matrix(1,0,0,1,127.814,-3639.04)"><g transform="matrix(150,0,0,150,-23.622,3848.23)"><path d="M0.036,-0l0.082,-0l0.069,-0.206l0.295,0l0.07,0.206l0.086,-0l-0.242,-0.715l-0.114,0l-0.246,0.715Zm0.299,-0.643l0.124,0.368l-0.248,0l0.124,-0.368Z" style="fill:#ee536d;fill-rule:nonzero;"/></g><g transform="matrix(150,0,0,150,77.478,3848.23)"><path d="M0.084,-0l0.083,-0l0,-0.317c0,-0.094 0.069,-0.143 0.146,-0.143c0.084,0 0.123,0.041 0.123,0.133l0,0.327l0.083,-0l0,-0.321c0,-0.152 -0.076,-0.211 -0.184,-0.211c-0.086,0 -0.144,0.043 -0.168,0.092l0,-0.083l-0.083,0l0,0.523Z" style="fill:#ee536d;fill-rule:nonzero;"/></g><g transform="matrix(150,0,0,150,206.928,3848.23)"><path d="M0.341,0.009c0.184,0 0.271,-0.107 0.271,-0.281l-0,-0.443l-0.087,0l-0,0.431c-0,0.175 -0.068,0.221 -0.182,0.221c-0.119,0 -0.172,-0.058 -0.172,-0.208l-0,-0.444l-0.087,0l-0,0.454c-0,0.174 0.093,0.27 0.257,0.27Z" style="fill:#ee536d;fill-rule:nonzero;"/></g><g transform="matrix(150,0,0,150,310.578,3848.23)"><path d="M0.084,-0l0.083,-0l0,-0.317c0,-0.094 0.069,-0.143 0.146,-0.143c0.084,0 0.123,0.041 0.123,0.133l0,0.327l0.083,-0l0,-0.321c0,-0.152 -0.076,-0.211 -0.184,-0.211c-0.086,0 -0.144,0.043 -0.168,0.092l0,-0.083l-0.083,0l0,0.523Z" style="fill:#ee536d;fill-rule:nonzero;"/></g><g transform="matrix(150,0,0,150,400.278,3848.23)"><path d="M0.281,0.009c0.076,0 0.149,-0.048 0.179,-0.099l0,0.09l0.083,-0l0,-0.773l-0.083,0l0,0.334c-0.03,-0.051 -0.084,-0.093 -0.171,-0.093c-0.144,0 -0.244,0.113 -0.244,0.273l-0,0.008c-0,0.163 0.099,0.26 0.236,0.26Zm0.009,-0.069c-0.088,0 -0.159,-0.063 -0.159,-0.195l-0,-0.008c-0,-0.127 0.062,-0.2 0.166,-0.2c0.102,0 0.166,0.063 0.166,0.197l-0,0.008c-0,0.134 -0.076,0.198 -0.173,0.198Z" style="fill:#ee536d;fill-rule:nonzero;"/></g><g transform="matrix(150,0,0,150,494.328,3848.23)"><path d="M0.298,0.009c0.118,0 0.205,-0.055 0.223,-0.16l-0.083,0c-0.011,0.061 -0.058,0.091 -0.139,0.091c-0.107,0 -0.164,-0.066 -0.168,-0.185l0.394,0l0,-0.027c0,-0.187 -0.114,-0.26 -0.235,-0.26c-0.144,0 -0.245,0.11 -0.245,0.268l-0,0.008c-0,0.161 0.105,0.265 0.253,0.265Zm-0.164,-0.321c0.014,-0.093 0.071,-0.151 0.156,-0.151c0.086,-0 0.142,0.043 0.15,0.151l-0.306,-0Z" style="fill:#ee536d;fill-rule:nonzero;"/></g><g transform="matrix(150,0,0,150,579.528,3848.23)"><path d="M0.084,-0l0.083,-0l0,-0.287c0,-0.129 0.067,-0.162 0.172,-0.167l0,-0.078c-0.094,0.003 -0.139,0.044 -0.172,0.103l0,-0.094l-0.083,0l0,0.523Z" style="fill:#ee536d;fill-rule:nonzero;"/></g><g transform="matrix(150,0,0,150,635.178,3848.23)"><path d="M0.246,0.009c0.127,0 0.192,-0.064 0.192,-0.159c0,-0.111 -0.076,-0.135 -0.184,-0.155c-0.096,-0.017 -0.122,-0.036 -0.122,-0.083c0,-0.045 0.039,-0.075 0.099,-0.075c0.066,0 0.098,0.025 0.11,0.082l0.08,0c-0.014,-0.113 -0.095,-0.151 -0.189,-0.151c-0.082,0 -0.177,0.05 -0.177,0.147c-0,0.091 0.046,0.129 0.182,0.154c0.081,0.015 0.122,0.033 0.122,0.088c-0,0.056 -0.035,0.083 -0.114,0.083c-0.084,0 -0.117,-0.039 -0.123,-0.101l-0.081,0c0.005,0.107 0.08,0.17 0.205,0.17Z" style="fill:#ee536d;fill-rule:nonzero;"/></g><g transform="matrix(150,0,0,150,707.178,3848.23)"><path d="M0.243,0.007c0.034,0 0.054,-0.005 0.071,-0.011l0,-0.07c-0.018,0.007 -0.038,0.011 -0.064,0.011c-0.042,0 -0.065,-0.025 -0.065,-0.076l0,-0.314l0.122,0l0,-0.07l-0.122,0l0,-0.119l-0.083,0l0,0.119l-0.075,0l0,0.07l0.075,0l0,0.322c0,0.082 0.046,0.138 0.141,0.138Z" style="fill:#ee536d;fill-rule:nonzero;"/></g><g transform="matrix(150,0,0,150,761.178,3848.23)"><path d="M0.215,0.009c0.077,0 0.124,-0.026 0.163,-0.075l0,0.066l0.083,-0l0,-0.345c0,-0.146 -0.091,-0.187 -0.191,-0.187c-0.101,0 -0.196,0.044 -0.207,0.163l0.083,0c0.008,-0.064 0.048,-0.094 0.12,-0.094c0.08,-0 0.112,0.035 0.112,0.118l0,0.038l-0.075,0c-0.134,0 -0.262,0.041 -0.262,0.162c0,0.107 0.077,0.154 0.174,0.154Zm0.008,-0.066c-0.073,-0 -0.099,-0.034 -0.099,-0.088c0,-0.077 0.077,-0.103 0.182,-0.103l0.072,0l0,0.065c0,0.081 -0.067,0.126 -0.155,0.126Z" style="fill:#ee536d;fill-rule:nonzero;"/></g><g transform="matrix(150,0,0,150,842.178,3848.23)"><path d="M0.084,-0l0.083,-0l0,-0.317c0,-0.094 0.069,-0.143 0.146,-0.143c0.084,0 0.123,0.041 0.123,0.133l0,0.327l0.083,-0l0,-0.321c0,-0.152 -0.076,-0.211 -0.184,-0.211c-0.086,0 -0.144,0.043 -0.168,0.092l0,-0.083l-0.083,0l0,0.523Z" style="fill:#ee536d;fill-rule:nonzero;"/></g><g transform="matrix(150,0,0,150,931.878,3848.23)"><path d="M0.281,0.009c0.076,0 0.149,-0.048 0.179,-0.099l0,0.09l0.083,-0l0,-0.773l-0.083,0l0,0.334c-0.03,-0.051 -0.084,-0.093 -0.171,-0.093c-0.144,0 -0.244,0.113 -0.244,0.273l-0,0.008c-0,0.163 0.099,0.26 0.236,0.26Zm0.009,-0.069c-0.088,0 -0.159,-0.063 -0.159,-0.195l-0,-0.008c-0,-0.127 0.062,-0.2 0.166,-0.2c0.102,0 0.166,0.063 0.166,0.197l-0,0.008c-0,0.134 -0.076,0.198 -0.173,0.198Z" style="fill:#ee536d;fill-rule:nonzero;"/></g><g transform="matrix(150,0,0,150,1025.93,3848.23)"><path d="M0.086,-0l0.083,-0l0,-0.523l-0.083,0l0,0.523Zm0.04,-0.632c0.03,0 0.055,-0.025 0.055,-0.055c0,-0.03 -0.025,-0.055 -0.055,-0.055c-0.03,0 -0.055,0.025 -0.055,0.055c0,0.03 0.025,0.055 0.055,0.055Z" style="fill:#ee536d;fill-rule:nonzero;"/></g><g transform="matrix(150,0,0,150,1064.18,3848.23)"><path d="M0.084,-0l0.083,-0l0,-0.317c0,-0.094 0.069,-0.143 0.146,-0.143c0.084,0 0.123,0.041 0.123,0.133l0,0.327l0.083,-0l0,-0.321c0,-0.152 -0.076,-0.211 -0.184,-0.211c-0.086,0 -0.144,0.043 -0.168,0.092l0,-0.083l-0.083,0l0,0.523Z" style="fill:#ee536d;fill-rule:nonzero;"/></g><g transform="matrix(150,0,0,150,1153.88,3848.23)"><path d="M0.293,0.191c0.146,0 0.249,-0.074 0.25,-0.226l0,-0.488l-0.083,0l0,0.084c-0.03,-0.051 -0.084,-0.093 -0.171,-0.093c-0.144,0 -0.244,0.118 -0.244,0.26l0,0.007c0,0.144 0.101,0.248 0.238,0.248c0.076,0 0.147,-0.048 0.177,-0.099l0,0.076c0,0.112 -0.065,0.161 -0.168,0.161c-0.089,0 -0.139,-0.031 -0.151,-0.091l-0.085,0c0.014,0.088 0.082,0.161 0.237,0.161Zm-0.001,-0.277c-0.088,0 -0.161,-0.068 -0.161,-0.182l0,-0.008c0,-0.11 0.062,-0.187 0.166,-0.187c0.102,0 0.166,0.068 0.166,0.185l0,0.007c0,0.117 -0.074,0.185 -0.171,0.185Z" style="fill:#ee536d;fill-rule:nonzero;"/></g><g transform="matrix(150,0,0,150,1287.68,3848.23)"><path d="M0.102,-0l0.083,-0l0,-0.453l0.128,0l0,-0.07l-0.128,0l0,-0.094c0,-0.053 0.022,-0.09 0.076,-0.09c0.023,0 0.044,0.005 0.059,0.011l0,-0.07c-0.021,-0.007 -0.035,-0.01 -0.062,-0.01c-0.104,0 -0.156,0.062 -0.156,0.168l0,0.085l-0.075,0l-0,0.07l0.075,0l0,0.453Z" style="fill:#ee536d;fill-rule:nonzero;"/></g><g transform="matrix(150,0,0,150,1335.83,3848.23)"><path d="M0.302,-0.06c-0.106,0 -0.171,-0.078 -0.171,-0.197l0,-0.008c0,-0.12 0.066,-0.198 0.171,-0.198c0.104,0 0.171,0.078 0.171,0.199l0,0.007c0,0.118 -0.066,0.197 -0.171,0.197Zm-0.001,0.069c0.149,-0 0.258,-0.109 0.258,-0.267l0,-0.008c0,-0.157 -0.109,-0.266 -0.257,-0.266c-0.148,0 -0.257,0.11 -0.257,0.267l0,0.008c0,0.153 0.107,0.266 0.256,0.266Z" style="fill:#ee536d;fill-rule:nonzero;"/></g><g transform="matrix(150,0,0,150,1426.43,3848.23)"><path d="M0.084,-0l0.083,-0l0,-0.287c0,-0.129 0.067,-0.162 0.172,-0.167l0,-0.078c-0.094,0.003 -0.139,0.044 -0.172,0.103l0,-0.094l-0.083,0l0,0.523Z" style="fill:#ee536d;fill-rule:nonzero;"/></g><g transform="matrix(150,0,0,150,1522.58,3848.23)"><path d="M0.243,0.007c0.034,0 0.054,-0.005 0.071,-0.011l0,-0.07c-0.018,0.007 -0.038,0.011 -0.064,0.011c-0.042,0 -0.065,-0.025 -0.065,-0.076l0,-0.314l0.122,0l0,-0.07l-0.122,0l0,-0.119l-0.083,0l0,0.119l-0.075,0l0,0.07l0.075,0l0,0.322c0,0.082 0.046,0.138 0.141,0.138Z" style="fill:#ee536d;fill-rule:nonzero;"/></g><g transform="matrix(150,0,0,150,1575.83,3848.23)"><path d="M0.084,-0l0.083,-0l0,-0.317c0,-0.094 0.069,-0.143 0.146,-0.143c0.084,0 0.123,0.041 0.123,0.133l0,0.327l0.083,-0l0,-0.321c0,-0.152 -0.076,-0.211 -0.184,-0.211c-0.086,0 -0.144,0.043 -0.168,0.092l0,-0.333l-0.083,0l0,0.773Z" style="fill:#ee536d;fill-rule:nonzero;"/></g><g transform="matrix(150,0,0,150,1665.53,3848.23)"><path d="M0.298,0.009c0.118,0 0.205,-0.055 0.223,-0.16l-0.083,0c-0.011,0.061 -0.058,0.091 -0.139,0.091c-0.107,0 -0.164,-0.066 -0.168,-0.185l0.394,0l0,-0.027c0,-0.187 -0.114,-0.26 -0.235,-0.26c-0.144,0 -0.245,0.11 -0.245,0.268l-0,0.008c-0,0.161 0.105,0.265 0.253,0.265Zm-0.164,-0.321c0.014,-0.093 0.071,-0.151 0.156,-0.151c0.086,-0 0.142,0.043 0.15,0.151l-0.306,-0Z" style="fill:#ee536d;fill-rule:nonzero;"/></g><g transform="matrix(150,0,0,150,1790.48,3848.23)"><path d="M0.09,-0l0.087,-0l0,-0.311l0.11,0l0.213,0.311l0.097,-0l-0.219,-0.317c0.098,-0.019 0.177,-0.077 0.177,-0.195l0,-0.004c0,-0.143 -0.113,-0.199 -0.25,-0.199l-0.215,0l0,0.715Zm0.087,-0.38l0,-0.265l0.134,0c0.097,0 0.157,0.032 0.157,0.129l0,0.004c0,0.088 -0.055,0.132 -0.157,0.132l-0.134,0Z" style="fill:#ee536d;fill-rule:nonzero;"/></g><g transform="matrix(150,0,0,150,1882.43,3848.23)"><path d="M0.298,0.009c0.118,0 0.205,-0.055 0.223,-0.16l-0.083,0c-0.011,0.061 -0.058,0.091 -0.139,0.091c-0.107,0 -0.164,-0.066 -0.168,-0.185l0.394,0l0,-0.027c0,-0.187 -0.114,-0.26 -0.235,-0.26c-0.144,0 -0.245,0.11 -0.245,0.268l-0,0.008c-0,0.161 0.105,0.265 0.253,0.265Zm-0.164,-0.321c0.014,-0.093 0.071,-0.151 0.156,-0.151c0.086,-0 0.142,0.043 0.15,0.151l-0.306,-0Z" style="fill:#ee536d;fill-rule:nonzero;"/></g><g transform="matrix(150,0,0,150,1967.63,3848.23)"><path d="M0.084,0.182l0.083,0l0,-0.268c0.03,0.052 0.091,0.095 0.177,0.095c0.144,0 0.238,-0.11 0.238,-0.27l0,-0.008c0,-0.163 -0.101,-0.263 -0.238,-0.263c-0.076,0 -0.147,0.046 -0.177,0.097l0,-0.088l-0.083,0l0,0.705Zm0.252,-0.242c-0.102,0 -0.172,-0.063 -0.172,-0.197l0,-0.008c0,-0.134 0.074,-0.198 0.171,-0.198c0.088,0 0.161,0.066 0.161,0.198l0,0.008c0,0.127 -0.056,0.197 -0.16,0.197Z" style="fill:#ee536d;fill-rule:nonzero;"/></g><g transform="matrix(150,0,0,150,2061.68,3848.23)"><rect x="0.086" y="-0.773" width="0.084" height="0.773" style="fill:#ee536d;fill-rule:nonzero;"/></g><g transform="matrix(150,0,0,150,2100.08,3848.23)"><path d="M0.298,0.009c0.118,0 0.205,-0.055 0.223,-0.16l-0.083,0c-0.011,0.061 -0.058,0.091 -0.139,0.091c-0.107,0 -0.164,-0.066 -0.168,-0.185l0.394,0l0,-0.027c0,-0.187 -0.114,-0.26 -0.235,-0.26c-0.144,0 -0.245,0.11 -0.245,0.268l-0,0.008c-0,0.161 0.105,0.265 0.253,0.265Zm-0.164,-0.321c0.014,-0.093 0.071,-0.151 0.156,-0.151c0.086,-0 0.142,0.043 0.15,0.151l-0.306,-0Z" style="fill:#ee536d;fill-rule:nonzero;"/></g><g transform="matrix(150,0,0,150,2185.28,3848.23)"><path d="M0.084,-0l0.083,-0l0,-0.317c0,-0.094 0.069,-0.143 0.146,-0.143c0.084,0 0.123,0.041 0.123,0.133l0,0.327l0.083,-0l0,-0.321c0,-0.152 -0.076,-0.211 -0.184,-0.211c-0.086,0 -0.144,0.043 -0.168,0.092l0,-0.083l-0.083,0l0,0.523Z" style="fill:#ee536d;fill-rule:nonzero;"/></g><g transform="matrix(150,0,0,150,2274.98,3848.23)"><path d="M0.086,-0l0.083,-0l0,-0.523l-0.083,0l0,0.523Zm0.04,-0.632c0.03,0 0.055,-0.025 0.055,-0.055c0,-0.03 -0.025,-0.055 -0.055,-0.055c-0.03,0 -0.055,0.025 -0.055,0.055c0,0.03 0.025,0.055 0.055,0.055Z" style="fill:#ee536d;fill-rule:nonzero;"/></g><g transform="matrix(150,0,0,150,2313.23,3848.23)"><path d="M0.246,0.009c0.127,0 0.192,-0.064 0.192,-0.159c0,-0.111 -0.076,-0.135 -0.184,-0.155c-0.096,-0.017 -0.122,-0.036 -0.122,-0.083c0,-0.045 0.039,-0.075 0.099,-0.075c0.066,0 0.098,0.025 0.11,0.082l0.08,0c-0.014,-0.113 -0.095,-0.151 -0.189,-0.151c-0.082,0 -0.177,0.05 -0.177,0.147c-0,0.091 0.046,0.129 0.182,0.154c0.081,0.015 0.122,0.033 0.122,0.088c-0,0.056 -0.035,0.083 -0.114,0.083c-0.084,0 -0.117,-0.039 -0.123,-0.101l-0.081,0c0.005,0.107 0.08,0.17 0.205,0.17Z" style="fill:#ee536d;fill-rule:nonzero;"/></g><g transform="matrix(150,0,0,150,2385.23,3848.23)"><path d="M0.084,-0l0.083,-0l0,-0.317c0,-0.094 0.069,-0.143 0.146,-0.143c0.084,0 0.123,0.041 0.123,0.133l0,0.327l0.083,-0l0,-0.321c0,-0.152 -0.076,-0.211 -0.184,-0.211c-0.086,0 -0.144,0.043 -0.168,0.092l0,-0.333l-0.083,0l0,0.773Z" style="fill:#ee536d;fill-rule:nonzero;"/></g><g transform="matrix(150,0,0,150,2474.93,3848.23)"><path d="M0.084,-0l0.083,-0l0,-0.32c0,-0.094 0.07,-0.14 0.138,-0.14c0.072,0 0.111,0.038 0.111,0.13l0,0.33l0.083,-0l-0,-0.32c-0,-0.094 0.07,-0.14 0.138,-0.14c0.072,0 0.111,0.038 0.111,0.13l0,0.33l0.083,-0l0,-0.324c0,-0.152 -0.082,-0.208 -0.176,-0.208c-0.065,0 -0.143,0.03 -0.179,0.098c-0.027,-0.07 -0.086,-0.098 -0.153,-0.098c-0.075,0 -0.132,0.04 -0.156,0.089l-0,-0.08l-0.083,0l-0,0.523Z" style="fill:#ee536d;fill-rule:nonzero;"/></g><g transform="matrix(150,0,0,150,2611.43,3848.23)"><path d="M0.298,0.009c0.118,0 0.205,-0.055 0.223,-0.16l-0.083,0c-0.011,0.061 -0.058,0.091 -0.139,0.091c-0.107,0 -0.164,-0.066 -0.168,-0.185l0.394,0l0,-0.027c0,-0.187 -0.114,-0.26 -0.235,-0.26c-0.144,0 -0.245,0.11 -0.245,0.268l-0,0.008c-0,0.161 0.105,0.265 0.253,0.265Zm-0.164,-0.321c0.014,-0.093 0.071,-0.151 0.156,-0.151c0.086,-0 0.142,0.043 0.15,0.151l-0.306,-0Z" style="fill:#ee536d;fill-rule:nonzero;"/></g><g transform="matrix(150,0,0,150,2696.63,3848.23)"><path d="M0.084,-0l0.083,-0l0,-0.317c0,-0.094 0.069,-0.143 0.146,-0.143c0.084,0 0.123,0.041 0.123,0.133l0,0.327l0.083,-0l0,-0.321c0,-0.152 -0.076,-0.211 -0.184,-0.211c-0.086,0 -0.144,0.043 -0.168,0.092l0,-0.083l-0.083,0l0,0.523Z" style="fill:#ee536d;fill-rule:nonzero;"/></g><g transform="matrix(150,0,0,150,2786.33,3848.23)"><path d="M0.243,0.007c0.034,0 0.054,-0.005 0.071,-0.011l0,-0.07c-0.018,0.007 -0.038,0.011 -0.064,0.011c-0.042,0 -0.065,-0.025 -0.065,-0.076l0,-0.314l0.122,0l0,-0.07l-0.122,0l0,-0.119l-0.083,0l0,0.119l-0.075,0l0,0.07l0.075,0l0,0.322c0,0.082 0.046,0.138 0.141,0.138Z" style="fill:#ee536d;fill-rule:nonzero;"/></g><g transform="matrix(150,0,0,150,2879.33,3848.23)"><path d="M0.302,-0.06c-0.106,0 -0.171,-0.078 -0.171,-0.197l0,-0.008c0,-0.12 0.066,-0.198 0.171,-0.198c0.104,0 0.171,0.078 0.171,0.199l0,0.007c0,0.118 -0.066,0.197 -0.171,0.197Zm-0.001,0.069c0.149,-0 0.258,-0.109 0.258,-0.267l0,-0.008c0,-0.157 -0.109,-0.266 -0.257,-0.266c-0.148,0 -0.257,0.11 -0.257,0.267l0,0.008c0,0.153 0.107,0.266 0.256,0.266Z" style="fill:#ee536d;fill-rule:nonzero;"/></g><g transform="matrix(150,0,0,150,2969.93,3848.23)"><path d="M0.102,-0l0.083,-0l0,-0.453l0.128,0l0,-0.07l-0.128,0l0,-0.094c0,-0.053 0.022,-0.09 0.076,-0.09c0.023,0 0.044,0.005 0.059,0.011l0,-0.07c-0.021,-0.007 -0.035,-0.01 -0.062,-0.01c-0.104,0 -0.156,0.062 -0.156,0.168l0,0.085l-0.075,0l-0,0.07l0.075,0l0,0.453Z" style="fill:#ee536d;fill-rule:nonzero;"/></g><g transform="matrix(150,0,0,150,3061.58,3848.23)"><path d="M0.09,-0l0.435,-0l0,-0.071l-0.348,0l0,-0.259l0.266,0l0,-0.071l-0.266,0l0,-0.243l0.33,0l0,-0.071l-0.417,0l-0,0.715Z" style="fill:#ee536d;fill-rule:nonzero;"/></g><g transform="matrix(150,0,0,150,3146.48,3848.23)"><path d="M0.301,0.009c0.126,0 0.217,-0.084 0.228,-0.197l-0.077,0c-0.009,0.085 -0.076,0.128 -0.15,0.128c-0.101,0 -0.171,-0.068 -0.171,-0.196l-0,-0.008c-0,-0.123 0.073,-0.199 0.168,-0.199c0.072,0 0.132,0.031 0.145,0.114l0.082,0c-0.016,-0.133 -0.118,-0.183 -0.227,-0.183c-0.14,0 -0.254,0.108 -0.254,0.268l-0,0.008c-0,0.162 0.11,0.265 0.256,0.265Z" style="fill:#ee536d;fill-rule:nonzero;"/></g><g transform="matrix(150,0,0,150,3231.98,3848.23)"><path d="M0.302,-0.06c-0.106,0 -0.171,-0.078 -0.171,-0.197l0,-0.008c0,-0.12 0.066,-0.198 0.171,-0.198c0.104,0 0.171,0.078 0.171,0.199l0,0.007c0,0.118 -0.066,0.197 -0.171,0.197Zm-0.001,0.069c0.149,-0 0.258,-0.109 0.258,-0.267l0,-0.008c0,-0.157 -0.109,-0.266 -0.257,-0.266c-0.148,0 -0.257,0.11 -0.257,0.267l0,0.008c0,0.153 0.107,0.266 0.256,0.266Z" style="fill:#ee536d;fill-rule:nonzero;"/></g><g transform="matrix(150,0,0,150,3322.58,3848.23)"><path d="M0.246,0.009c0.127,0 0.192,-0.064 0.192,-0.159c0,-0.111 -0.076,-0.135 -0.184,-0.155c-0.096,-0.017 -0.122,-0.036 -0.122,-0.083c0,-0.045 0.039,-0.075 0.099,-0.075c0.066,0 0.098,0.025 0.11,0.082l0.08,0c-0.014,-0.113 -0.095,-0.151 -0.189,-0.151c-0.082,0 -0.177,0.05 -0.177,0.147c-0,0.091 0.046,0.129 0.182,0.154c0.081,0.015 0.122,0.033 0.122,0.088c-0,0.056 -0.035,0.083 -0.114,0.083c-0.084,0 -0.117,-0.039 -0.123,-0.101l-0.081,0c0.005,0.107 0.08,0.17 0.205,0.17Z" style="fill:#ee536d;fill-rule:nonzero;"/></g><g transform="matrix(150,0,0,150,3393.08,3848.23)"><path d="M0.131,0.182l0.084,0l0.289,-0.705l-0.085,-0l-0.145,0.375l-0.16,-0.375l-0.089,-0l0.205,0.469l-0.099,0.236Z" style="fill:#ee536d;fill-rule:nonzero;"/></g><g transform="matrix(150,0,0,150,3472.43,3848.23)"><path d="M0.246,0.009c0.127,0 0.192,-0.064 0.192,-0.159c0,-0.111 -0.076,-0.135 -0.184,-0.155c-0.096,-0.017 -0.122,-0.036 -0.122,-0.083c0,-0.045 0.039,-0.075 0.099,-0.075c0.066,0 0.098,0.025 0.11,0.082l0.08,0c-0.014,-0.113 -0.095,-0.151 -0.189,-0.151c-0.082,0 -0.177,0.05 -0.177,0.147c-0,0.091 0.046,0.129 0.182,0.154c0.081,0.015 0.122,0.033 0.122,0.088c-0,0.056 -0.035,0.083 -0.114,0.083c-0.084,0 -0.117,-0.039 -0.123,-0.101l-0.081,0c0.005,0.107 0.08,0.17 0.205,0.17Z" style="fill:#ee536d;fill-rule:nonzero;"/></g><g transform="matrix(150,0,0,150,3544.43,3848.23)"><path d="M0.243,0.007c0.034,0 0.054,-0.005 0.071,-0.011l0,-0.07c-0.018,0.007 -0.038,0.011 -0.064,0.011c-0.042,0 -0.065,-0.025 -0.065,-0.076l0,-0.314l0.122,0l0,-0.07l-0.122,0l0,-0.119l-0.083,0l0,0.119l-0.075,0l0,0.07l0.075,0l0,0.322c0,0.082 0.046,0.138 0.141,0.138Z" style="fill:#ee536d;fill-rule:nonzero;"/></g><g transform="matrix(150,0,0,150,3597.68,3848.23)"><path d="M0.298,0.009c0.118,0 0.205,-0.055 0.223,-0.16l-0.083,0c-0.011,0.061 -0.058,0.091 -0.139,0.091c-0.107,0 -0.164,-0.066 -0.168,-0.185l0.394,0l0,-0.027c0,-0.187 -0.114,-0.26 -0.235,-0.26c-0.144,0 -0.245,0.11 -0.245,0.268l-0,0.008c-0,0.161 0.105,0.265 0.253,0.265Zm-0.164,-0.321c0.014,-0.093 0.071,-0.151 0.156,-0.151c0.086,-0 0.142,0.043 0.15,0.151l-0.306,-0Z" style="fill:#ee536d;fill-rule:nonzero;"/></g><g transform="matrix(150,0,0,150,3682.88,3848.23)"><path d="M0.084,-0l0.083,-0l0,-0.32c0,-0.094 0.07,-0.14 0.138,-0.14c0.072,0 0.111,0.038 0.111,0.13l0,0.33l0.083,-0l-0,-0.32c-0,-0.094 0.07,-0.14 0.138,-0.14c0.072,0 0.111,0.038 0.111,0.13l0,0.33l0.083,-0l0,-0.324c0,-0.152 -0.082,-0.208 -0.176,-0.208c-0.065,0 -0.143,0.03 -0.179,0.098c-0.027,-0.07 -0.086,-0.098 -0.153,-0.098c-0.075,0 -0.132,0.04 -0.156,0.089l-0,-0.08l-0.083,0l-0,0.523Z" style="fill:#ee536d;fill-rule:nonzero;"/></g><g transform="matrix(150,0,0,150,3819.38,3848.23)"><path d="M0.246,0.009c0.127,0 0.192,-0.064 0.192,-0.159c0,-0.111 -0.076,-0.135 -0.184,-0.155c-0.096,-0.017 -0.122,-0.036 -0.122,-0.083c0,-0.045 0.039,-0.075 0.099,-0.075c0.066,0 0.098,0.025 0.11,0.082l0.08,0c-0.014,-0.113 -0.095,-0.151 -0.189,-0.151c-0.082,0 -0.177,0.05 -0.177,0.147c-0,0.091 0.046,0.129 0.182,0.154c0.081,0.015 0.122,0.033 0.122,0.088c-0,0.056 -0.035,0.083 -0.114,0.083c-0.084,0 -0.117,-0.039 -0.123,-0.101l-0.081,0c0.005,0.107 0.08,0.17 0.205,0.17Z" style="fill:#ee536d;fill-rule:nonzero;"/></g><g transform="matrix(87.45,0,0,87.45,3891.38,3798.28)"><path d="M0.193,-0l0.087,-0l0,-0.715l-0.081,0l-0.166,0.12l0,0.081l0.16,-0.115l0,0.629Z" style="fill:#ee536d;fill-rule:nonzero;"/></g><g transform="matrix(150,0,0,150,-23.622,4125.48)"><path d="M0.206,-0l0.206,-0l0,-0.557l0.185,0l0,-0.158l-0.576,0l0,0.158l0.185,0l0,0.557Z" style="fill:#ee536d;fill-rule:nonzero;"/></g><g transform="matrix(150,0,0,150,69.078,4125.48)"><path d="M0.053,-0l0.179,-0l0,-0.293c0,-0.067 0.036,-0.099 0.089,-0.099c0.052,0 0.075,0.029 0.075,0.088l0,0.304l0.179,0l0,-0.34c0,-0.134 -0.07,-0.197 -0.171,-0.197c-0.087,0 -0.144,0.044 -0.172,0.098l0,-0.314l-0.179,0l0,0.753Z" style="fill:#ee536d;fill-rule:nonzero;"/></g><g transform="matrix(150,0,0,150,162.678,4125.48)"><path d="M0.309,0.012c0.158,0 0.249,-0.067 0.265,-0.185l-0.168,-0c-0.007,0.035 -0.032,0.062 -0.091,0.062c-0.064,-0 -0.104,-0.04 -0.109,-0.109l0.368,-0l0,-0.047c0,-0.188 -0.123,-0.27 -0.266,-0.27c-0.158,-0 -0.283,0.106 -0.283,0.274l-0,0.008c-0,0.171 0.12,0.267 0.284,0.267Zm-0.101,-0.333c0.009,-0.063 0.046,-0.098 0.1,-0.098c0.058,-0 0.089,0.035 0.092,0.098l-0.192,-0Z" style="fill:#ee536d;fill-rule:nonzero;"/></g><g transform="matrix(150,0,0,150,253.128,4125.48)"><path d="M0.258,0.012c0.145,0 0.237,-0.056 0.237,-0.18c0,-0.112 -0.07,-0.15 -0.215,-0.168c-0.064,-0.008 -0.088,-0.018 -0.088,-0.043c-0,-0.024 0.02,-0.041 0.059,-0.041c0.041,-0 0.06,0.017 0.067,0.052l0.162,-0c-0.012,-0.125 -0.102,-0.169 -0.231,-0.169c-0.121,-0 -0.224,0.056 -0.224,0.172c-0,0.109 0.059,0.15 0.199,0.168c0.072,0.01 0.097,0.022 0.097,0.047c-0,0.026 -0.02,0.043 -0.064,0.043c-0.051,-0 -0.068,-0.021 -0.074,-0.059l-0.165,-0c0.004,0.116 0.091,0.178 0.24,0.178Z" style="fill:#ee536d;fill-rule:nonzero;"/></g><g transform="matrix(150,0,0,150,330.378,4125.48)"><path d="M0.058,-0l0.179,-0l0,-0.523l-0.179,0l0,0.523Zm0.089,-0.573c0.056,0 0.099,-0.039 0.099,-0.092c0,-0.053 -0.043,-0.093 -0.099,-0.093c-0.056,0 -0.098,0.04 -0.098,0.093c0,0.053 0.042,0.092 0.098,0.092Z" style="fill:#ee536d;fill-rule:nonzero;"/></g><g transform="matrix(150,0,0,150,374.628,4125.48)"><path d="M0.258,0.012c0.145,0 0.237,-0.056 0.237,-0.18c0,-0.112 -0.07,-0.15 -0.215,-0.168c-0.064,-0.008 -0.088,-0.018 -0.088,-0.043c-0,-0.024 0.02,-0.041 0.059,-0.041c0.041,-0 0.06,0.017 0.067,0.052l0.162,-0c-0.012,-0.125 -0.102,-0.169 -0.231,-0.169c-0.121,-0 -0.224,0.056 -0.224,0.172c-0,0.109 0.059,0.15 0.199,0.168c0.072,0.01 0.097,0.022 0.097,0.047c-0,0.026 -0.02,0.043 -0.064,0.043c-0.051,-0 -0.068,-0.021 -0.074,-0.059l-0.165,-0c0.004,0.116 0.091,0.178 0.24,0.178Z" style="fill:#ee536d;fill-rule:nonzero;"/></g><g transform="matrix(150,0,0,150,451.878,4125.48)"><path d="M0.151,0.011c0.06,0 0.105,-0.045 0.105,-0.101c0,-0.056 -0.045,-0.101 -0.105,-0.101c-0.058,0 -0.102,0.045 -0.102,0.101c-0,0.056 0.044,0.101 0.102,0.101Zm-0,-0.286c0.06,0 0.105,-0.044 0.105,-0.101c0,-0.056 -0.045,-0.101 -0.105,-0.101c-0.058,-0 -0.102,0.045 -0.102,0.101c-0,0.057 0.044,0.101 0.102,0.101Z" style="fill:#ee536d;fill-rule:nonzero;"/></g><g transform="matrix(150,0,0,150,527.178,4125.48)"><path d="M0.206,-0l0.206,-0l0,-0.557l0.185,0l0,-0.158l-0.576,0l0,0.158l0.185,0l0,0.557Z" style="fill:#ee536d;fill-rule:nonzero;"/></g><g transform="matrix(150,0,0,150,608.628,4125.48)"><path d="M0.312,-0.121c-0.069,0 -0.104,-0.049 -0.104,-0.139l0,-0.008c0,-0.088 0.037,-0.135 0.104,-0.135c0.068,0 0.103,0.049 0.103,0.137l0,0.008c0,0.087 -0.036,0.137 -0.103,0.137Zm-0.001,0.133c0.161,-0 0.286,-0.102 0.286,-0.272l-0,-0.008c-0,-0.166 -0.124,-0.269 -0.285,-0.269c-0.162,0 -0.287,0.106 -0.287,0.274l-0,0.008c-0,0.169 0.125,0.267 0.286,0.267Z" style="fill:#ee536d;fill-rule:nonzero;"/></g><g transform="matrix(150,0,0,150,731.478,4125.48)"><path d="M0.053,-0l0.179,-0l0,-0.248c0,-0.084 0.06,-0.118 0.169,-0.115l0,-0.167c-0.081,-0.001 -0.136,0.033 -0.169,0.111l0,-0.104l-0.179,0l-0,0.523Z" style="fill:#ee536d;fill-rule:nonzero;"/></g><g transform="matrix(150,0,0,150,794.928,4125.48)"><path d="M0.309,0.012c0.158,0 0.249,-0.067 0.265,-0.185l-0.168,-0c-0.007,0.035 -0.032,0.062 -0.091,0.062c-0.064,-0 -0.104,-0.04 -0.109,-0.109l0.368,-0l0,-0.047c0,-0.188 -0.123,-0.27 -0.266,-0.27c-0.158,-0 -0.283,0.106 -0.283,0.274l-0,0.008c-0,0.171 0.12,0.267 0.284,0.267Zm-0.101,-0.333c0.009,-0.063 0.046,-0.098 0.1,-0.098c0.058,-0 0.089,0.035 0.092,0.098l-0.192,-0Z" style="fill:#ee536d;fill-rule:nonzero;"/></g><g transform="matrix(150,0,0,150,884.628,4125.48)"><rect x="0.051" y="-0.353" width="0.28" height="0.135" style="fill:#ee536d;fill-rule:nonzero;"/></g><g transform="matrix(150,0,0,150,941.928,4125.48)"><path d="M0.309,0.012c0.158,0 0.249,-0.067 0.265,-0.185l-0.168,-0c-0.007,0.035 -0.032,0.062 -0.091,0.062c-0.064,-0 -0.104,-0.04 -0.109,-0.109l0.368,-0l0,-0.047c0,-0.188 -0.123,-0.27 -0.266,-0.27c-0.158,-0 -0.283,0.106 -0.283,0.274l-0,0.008c-0,0.171 0.12,0.267 0.284,0.267Zm-0.101,-0.333c0.009,-0.063 0.046,-0.098 0.1,-0.098c0.058,-0 0.089,0.035 0.092,0.098l-0.192,-0Z" style="fill:#ee536d;fill-rule:nonzero;"/></g><g transform="matrix(150,0,0,150,1031.63,4125.48)"><path d="M0.053,-0l0.179,-0l0,-0.303c0,-0.057 0.032,-0.088 0.08,-0.088c0.041,0 0.067,0.026 0.067,0.079l0,0.312l0.177,-0l0,-0.303c0,-0.057 0.032,-0.088 0.08,-0.088c0.041,0 0.067,0.026 0.067,0.079l0,0.312l0.179,-0l-0,-0.342c-0,-0.131 -0.072,-0.195 -0.171,-0.195c-0.066,0 -0.128,0.026 -0.173,0.087c-0.025,-0.057 -0.073,-0.087 -0.142,-0.087c-0.081,0 -0.136,0.044 -0.164,0.094l0,-0.08l-0.179,0l-0,0.523Z" style="fill:#ee536d;fill-rule:nonzero;"/></g><g transform="matrix(150,0,0,150,1171.28,4125.48)"><path d="M0.394,0.012c0.123,0 0.222,-0.09 0.222,-0.27l0,-0.008c0,-0.179 -0.099,-0.271 -0.221,-0.271c-0.079,0 -0.133,0.042 -0.163,0.092l0,-0.308l-0.179,0l-0,0.753l0.179,0l0,-0.081c0.026,0.056 0.084,0.093 0.162,0.093Zm-0.063,-0.137c-0.065,0 -0.104,-0.045 -0.104,-0.134l0,-0.008c0,-0.088 0.039,-0.135 0.104,-0.135c0.063,0 0.103,0.044 0.103,0.136l-0,0.008c-0,0.086 -0.036,0.133 -0.103,0.133Z" style="fill:#ee536d;fill-rule:nonzero;"/></g><g transform="matrix(150,0,0,150,1267.73,4125.48)"><path d="M0.309,0.012c0.158,0 0.249,-0.067 0.265,-0.185l-0.168,-0c-0.007,0.035 -0.032,0.062 -0.091,0.062c-0.064,-0 -0.104,-0.04 -0.109,-0.109l0.368,-0l0,-0.047c0,-0.188 -0.123,-0.27 -0.266,-0.27c-0.158,-0 -0.283,0.106 -0.283,0.274l-0,0.008c-0,0.171 0.12,0.267 0.284,0.267Zm-0.101,-0.333c0.009,-0.063 0.046,-0.098 0.1,-0.098c0.058,-0 0.089,0.035 0.092,0.098l-0.192,-0Z" style="fill:#ee536d;fill-rule:nonzero;"/></g><g transform="matrix(150,0,0,150,1357.43,4125.48)"><path d="M0.247,0.012c0.079,0 0.137,-0.043 0.163,-0.097l0,0.085l0.179,-0l0,-0.753l-0.179,0l0,0.304c-0.03,-0.053 -0.079,-0.088 -0.161,-0.088c-0.124,0 -0.222,0.095 -0.222,0.273l0,0.008c0,0.181 0.099,0.268 0.22,0.268Zm0.063,-0.137c-0.062,0 -0.101,-0.045 -0.101,-0.133l0,-0.008c0,-0.091 0.036,-0.136 0.103,-0.136c0.066,0 0.103,0.047 0.103,0.135l0,0.008c0,0.089 -0.04,0.134 -0.105,0.134Z" style="fill:#ee536d;fill-rule:nonzero;"/></g><g transform="matrix(150,0,0,150,1483.28,4125.48)"><path d="M0.225,0.012c0.087,0 0.138,-0.039 0.166,-0.093l0,0.081l0.179,-0l0,-0.523l-0.179,0l-0,0.301c-0,0.067 -0.035,0.099 -0.089,0.099c-0.051,0 -0.074,-0.029 -0.074,-0.088l-0,-0.312l-0.179,0l-0,0.341c-0,0.132 0.075,0.194 0.176,0.194Z" style="fill:#ee536d;fill-rule:nonzero;"/></g><g transform="matrix(150,0,0,150,1576.73,4125.48)"><path d="M0.258,0.012c0.145,0 0.237,-0.056 0.237,-0.18c0,-0.112 -0.07,-0.15 -0.215,-0.168c-0.064,-0.008 -0.088,-0.018 -0.088,-0.043c-0,-0.024 0.02,-0.041 0.059,-0.041c0.041,-0 0.06,0.017 0.067,0.052l0.162,-0c-0.012,-0.125 -0.102,-0.169 -0.231,-0.169c-0.121,-0 -0.224,0.056 -0.224,0.172c-0,0.109 0.059,0.15 0.199,0.168c0.072,0.01 0.097,0.022 0.097,0.047c-0,0.026 -0.02,0.043 -0.064,0.043c-0.051,-0 -0.068,-0.021 -0.074,-0.059l-0.165,-0c0.004,0.116 0.091,0.178 0.24,0.178Z" style="fill:#ee536d;fill-rule:nonzero;"/></g><g transform="matrix(150,0,0,150,1683.53,4125.48)"><path d="M0.058,-0l0.179,-0l0,-0.523l-0.179,0l0,0.523Zm0.089,-0.573c0.056,0 0.099,-0.039 0.099,-0.092c0,-0.053 -0.043,-0.093 -0.099,-0.093c-0.056,0 -0.098,0.04 -0.098,0.093c0,0.053 0.042,0.092 0.098,0.092Z" style="fill:#ee536d;fill-rule:nonzero;"/></g><g transform="matrix(150,0,0,150,1727.78,4125.48)"><path d="M0.053,-0l0.179,-0l0,-0.293c0,-0.067 0.036,-0.099 0.089,-0.099c0.052,0 0.075,0.029 0.075,0.088l0,0.304l0.179,0l0,-0.34c0,-0.134 -0.07,-0.197 -0.171,-0.197c-0.087,0 -0.144,0.044 -0.172,0.098l0,-0.084l-0.179,0l0,0.523Z" style="fill:#ee536d;fill-rule:nonzero;"/></g><g transform="matrix(150,0,0,150,1821.38,4125.48)"><path d="M0.261,0.012c0.042,0 0.076,-0.009 0.099,-0.015l0,-0.136c-0.016,0.006 -0.031,0.009 -0.051,0.009c-0.034,0 -0.053,-0.017 -0.053,-0.055l0,-0.216l0.103,0l0,-0.122l-0.103,0l0,-0.109l-0.179,0l-0,0.109l-0.063,0l-0,0.122l0.063,0l-0,0.233c-0,0.123 0.066,0.18 0.184,0.18Z" style="fill:#ee536d;fill-rule:nonzero;"/></g><g transform="matrix(150,0,0,150,1879.73,4125.48)"><path d="M0.312,-0.121c-0.069,0 -0.104,-0.049 -0.104,-0.139l0,-0.008c0,-0.088 0.037,-0.135 0.104,-0.135c0.068,0 0.103,0.049 0.103,0.137l0,0.008c0,0.087 -0.036,0.137 -0.103,0.137Zm-0.001,0.133c0.161,-0 0.286,-0.102 0.286,-0.272l-0,-0.008c-0,-0.166 -0.124,-0.269 -0.285,-0.269c-0.162,0 -0.287,0.106 -0.287,0.274l-0,0.008c-0,0.169 0.125,0.267 0.286,0.267Z" style="fill:#ee536d;fill-rule:nonzero;"/></g><g transform="matrix(150,0,0,150,2002.58,4125.48)"><path d="M0.053,-0l0.179,-0l0,-0.293c0,-0.067 0.036,-0.099 0.089,-0.099c0.052,0 0.075,0.029 0.075,0.088l0,0.304l0.179,0l0,-0.34c0,-0.134 -0.07,-0.197 -0.171,-0.197c-0.087,0 -0.144,0.044 -0.172,0.098l0,-0.084l-0.179,0l0,0.523Z" style="fill:#ee536d;fill-rule:nonzero;"/></g><g transform="matrix(150,0,0,150,2096.18,4125.48)"><path d="M0.2,0.012c0.084,0 0.13,-0.035 0.155,-0.073l0,0.061l0.174,-0l0,-0.339c0,-0.139 -0.092,-0.198 -0.236,-0.198c-0.143,0 -0.242,0.062 -0.25,0.188l0.168,0c0.004,-0.033 0.022,-0.062 0.071,-0.062c0.057,0 0.069,0.033 0.069,0.083l0,0.012l-0.05,0c-0.174,0 -0.278,0.048 -0.278,0.171c-0,0.111 0.083,0.157 0.177,0.157Zm0.062,-0.121c-0.042,-0 -0.062,-0.019 -0.062,-0.049c0,-0.043 0.032,-0.057 0.104,-0.057l0.047,-0l0,0.032c0,0.045 -0.038,0.074 -0.089,0.074Z" style="fill:#ee536d;fill-rule:nonzero;"/></g><g transform="matrix(150,0,0,150,2182.13,4125.48)"><path d="M0.261,0.012c0.042,0 0.076,-0.009 0.099,-0.015l0,-0.136c-0.016,0.006 -0.031,0.009 -0.051,0.009c-0.034,0 -0.053,-0.017 -0.053,-0.055l0,-0.216l0.103,0l0,-0.122l-0.103,0l0,-0.109l-0.179,0l-0,0.109l-0.063,0l-0,0.122l0.063,0l-0,0.233c-0,0.123 0.066,0.18 0.184,0.18Z" style="fill:#ee536d;fill-rule:nonzero;"/></g><g transform="matrix(150,0,0,150,2240.48,4125.48)"><path d="M0.225,0.012c0.087,0 0.138,-0.039 0.166,-0.093l0,0.081l0.179,-0l0,-0.523l-0.179,0l-0,0.301c-0,0.067 -0.035,0.099 -0.089,0.099c-0.051,0 -0.074,-0.029 -0.074,-0.088l-0,-0.312l-0.179,0l-0,0.341c-0,0.132 0.075,0.194 0.176,0.194Z" style="fill:#ee536d;fill-rule:nonzero;"/></g><g transform="matrix(150,0,0,150,2333.93,4125.48)"><path d="M0.053,-0l0.179,-0l0,-0.248c0,-0.084 0.06,-0.118 0.169,-0.115l0,-0.167c-0.081,-0.001 -0.136,0.033 -0.169,0.111l0,-0.104l-0.179,0l-0,0.523Z" style="fill:#ee536d;fill-rule:nonzero;"/></g><g transform="matrix(150,0,0,150,2396.63,4125.48)"><path d="M0.2,0.012c0.084,0 0.13,-0.035 0.155,-0.073l0,0.061l0.174,-0l0,-0.339c0,-0.139 -0.092,-0.198 -0.236,-0.198c-0.143,0 -0.242,0.062 -0.25,0.188l0.168,0c0.004,-0.033 0.022,-0.062 0.071,-0.062c0.057,0 0.069,0.033 0.069,0.083l0,0.012l-0.05,0c-0.174,0 -0.278,0.048 -0.278,0.171c-0,0.111 0.083,0.157 0.177,0.157Zm0.062,-0.121c-0.042,-0 -0.062,-0.019 -0.062,-0.049c0,-0.043 0.032,-0.057 0.104,-0.057l0.047,-0l0,0.032c0,0.045 -0.038,0.074 -0.089,0.074Z" style="fill:#ee536d;fill-rule:nonzero;"/></g><g transform="matrix(150,0,0,150,2483.33,4125.48)"><rect x="0.058" y="-0.753" width="0.178" height="0.753" style="fill:#ee536d;fill-rule:nonzero;"/></g><g transform="matrix(150,0,0,150,2556.98,4125.48)"><path d="M0.3,0.012c0.169,0 0.258,-0.086 0.263,-0.218l-0.161,-0c-0.006,0.057 -0.041,0.087 -0.091,0.087c-0.068,-0 -0.103,-0.047 -0.103,-0.138l0,-0.008c0,-0.088 0.037,-0.133 0.1,-0.133c0.052,0 0.076,0.027 0.084,0.076l0.168,0c-0.01,-0.159 -0.128,-0.215 -0.256,-0.215c-0.154,0 -0.279,0.1 -0.279,0.274l0,0.008c0,0.176 0.119,0.267 0.275,0.267Z" style="fill:#ee536d;fill-rule:nonzero;"/></g><g transform="matrix(150,0,0,150,2641.43,4125.48)"><path d="M0.13,0.175l0.171,0l0.28,-0.698l-0.171,0l-0.1,0.279l-0.108,-0.279l-0.194,0l0.209,0.47l-0.087,0.228Z" style="fill:#ee536d;fill-rule:nonzero;"/></g><g transform="matrix(150,0,0,150,2725.28,4125.48)"><path d="M0.3,0.012c0.169,0 0.258,-0.086 0.263,-0.218l-0.161,-0c-0.006,0.057 -0.041,0.087 -0.091,0.087c-0.068,-0 -0.103,-0.047 -0.103,-0.138l0,-0.008c0,-0.088 0.037,-0.133 0.1,-0.133c0.052,0 0.076,0.027 0.084,0.076l0.168,0c-0.01,-0.159 -0.128,-0.215 -0.256,-0.215c-0.154,0 -0.279,0.1 -0.279,0.274l0,0.008c0,0.176 0.119,0.267 0.275,0.267Z" style="fill:#ee536d;fill-rule:nonzero;"/></g><g transform="matrix(150,0,0,150,2812.73,4125.48)"><rect x="0.058" y="-0.753" width="0.178" height="0.753" style="fill:#ee536d;fill-rule:nonzero;"/></g><g transform="matrix(150,0,0,150,2856.83,4125.48)"><path d="M0.309,0.012c0.158,0 0.249,-0.067 0.265,-0.185l-0.168,-0c-0.007,0.035 -0.032,0.062 -0.091,0.062c-0.064,-0 -0.104,-0.04 -0.109,-0.109l0.368,-0l0,-0.047c0,-0.188 -0.123,-0.27 -0.266,-0.27c-0.158,-0 -0.283,0.106 -0.283,0.274l-0,0.008c-0,0.171 0.12,0.267 0.284,0.267Zm-0.101,-0.333c0.009,-0.063 0.046,-0.098 0.1,-0.098c0.058,-0 0.089,0.035 0.092,0.098l-0.192,-0Z" style="fill:#ee536d;fill-rule:nonzero;"/></g><g transform="matrix(150,0,0,150,2947.28,4125.48)"><path d="M0.258,0.012c0.145,0 0.237,-0.056 0.237,-0.18c0,-0.112 -0.07,-0.15 -0.215,-0.168c-0.064,-0.008 -0.088,-0.018 -0.088,-0.043c-0,-0.024 0.02,-0.041 0.059,-0.041c0.041,-0 0.06,0.017 0.067,0.052l0.162,-0c-0.012,-0.125 -0.102,-0.169 -0.231,-0.169c-0.121,-0 -0.224,0.056 -0.224,0.172c-0,0.109 0.059,0.15 0.199,0.168c0.072,0.01 0.097,0.022 0.097,0.047c-0,0.026 -0.02,0.043 -0.064,0.043c-0.051,-0 -0.068,-0.021 -0.074,-0.059l-0.165,-0c0.004,0.116 0.091,0.178 0.24,0.178Z" style="fill:#ee536d;fill-rule:nonzero;"/></g><g transform="matrix(150,0,0,150,3024.53,4125.48)"><path d="M0.122,0.122l0.144,-0.245l-0.166,-0.059l-0.084,0.263l0.106,0.041Z" style="fill:#ee536d;fill-rule:nonzero;"/></g><g transform="matrix(87.45,0,0,87.45,3070.43,4075.53)"><path d="M0.008,-0l0.575,-0l-0,-0.153l-0.24,0l0.1,-0.097c0.08,-0.077 0.135,-0.151 0.135,-0.249c-0,-0.132 -0.093,-0.226 -0.268,-0.226c-0.173,0 -0.281,0.091 -0.288,0.27l0.186,-0c0.009,-0.085 0.041,-0.116 0.092,-0.116c0.051,-0 0.076,0.032 0.076,0.08c-0,0.06 -0.047,0.121 -0.118,0.197l-0.25,0.265l-0,0.029Z" style="fill:#ee536d;fill-rule:nonzero;"/></g><g transform="matrix(150,0,0,150,3153.76,4125.48)"><path d="M0.167,-0l0.174,-0l0.081,-0.292l0.078,0.292l0.171,-0l0.166,-0.523l-0.17,0l-0.085,0.313l-0.078,-0.313l-0.144,0l-0.088,0.313l-0.076,-0.313l-0.187,0l0.158,0.523Z" style="fill:#ee536d;fill-rule:nonzero;"/></g><g transform="matrix(150,0,0,150,3276.76,4125.48)"><path d="M0.309,0.012c0.158,0 0.249,-0.067 0.265,-0.185l-0.168,-0c-0.007,0.035 -0.032,0.062 -0.091,0.062c-0.064,-0 -0.104,-0.04 -0.109,-0.109l0.368,-0l0,-0.047c0,-0.188 -0.123,-0.27 -0.266,-0.27c-0.158,-0 -0.283,0.106 -0.283,0.274l-0,0.008c-0,0.171 0.12,0.267 0.284,0.267Zm-0.101,-0.333c0.009,-0.063 0.046,-0.098 0.1,-0.098c0.058,-0 0.089,0.035 0.092,0.098l-0.192,-0Z" style="fill:#ee536d;fill-rule:nonzero;"/></g><g transform="matrix(150,0,0,150,3396.01,4125.48)"><path d="M0.053,-0l0.179,-0l0,-0.303c0,-0.057 0.032,-0.088 0.08,-0.088c0.041,0 0.067,0.026 0.067,0.079l0,0.312l0.177,-0l0,-0.303c0,-0.057 0.032,-0.088 0.08,-0.088c0.041,0 0.067,0.026 0.067,0.079l0,0.312l0.179,-0l-0,-0.342c-0,-0.131 -0.072,-0.195 -0.171,-0.195c-0.066,0 -0.128,0.026 -0.173,0.087c-0.025,-0.057 -0.073,-0.087 -0.142,-0.087c-0.081,0 -0.136,0.044 -0.164,0.094l0,-0.08l-0.179,0l-0,0.523Z" style="fill:#ee536d;fill-rule:nonzero;"/></g><g transform="matrix(150,0,0,150,3535.66,4125.48)"><path d="M0.225,0.012c0.087,0 0.138,-0.039 0.166,-0.093l0,0.081l0.179,-0l0,-0.523l-0.179,0l-0,0.301c-0,0.067 -0.035,0.099 -0.089,0.099c-0.051,0 -0.074,-0.029 -0.074,-0.088l-0,-0.312l-0.179,0l-0,0.341c-0,0.132 0.075,0.194 0.176,0.194Z" style="fill:#ee536d;fill-rule:nonzero;"/></g><g transform="matrix(150,0,0,150,3629.11,4125.48)"><path d="M0.258,0.012c0.145,0 0.237,-0.056 0.237,-0.18c0,-0.112 -0.07,-0.15 -0.215,-0.168c-0.064,-0.008 -0.088,-0.018 -0.088,-0.043c-0,-0.024 0.02,-0.041 0.059,-0.041c0.041,-0 0.06,0.017 0.067,0.052l0.162,-0c-0.012,-0.125 -0.102,-0.169 -0.231,-0.169c-0.121,-0 -0.224,0.056 -0.224,0.172c-0,0.109 0.059,0.15 0.199,0.168c0.072,0.01 0.097,0.022 0.097,0.047c-0,0.026 -0.02,0.043 -0.064,0.043c-0.051,-0 -0.068,-0.021 -0.074,-0.059l-0.165,-0c0.004,0.116 0.091,0.178 0.24,0.178Z" style="fill:#ee536d;fill-rule:nonzero;"/></g><g transform="matrix(150,0,0,150,3706.36,4125.48)"><path d="M0.261,0.012c0.042,0 0.076,-0.009 0.099,-0.015l0,-0.136c-0.016,0.006 -0.031,0.009 -0.051,0.009c-0.034,0 -0.053,-0.017 -0.053,-0.055l0,-0.216l0.103,0l0,-0.122l-0.103,0l0,-0.109l-0.179,0l-0,0.109l-0.063,0l-0,0.122l0.063,0l-0,0.233c-0,0.123 0.066,0.18 0.184,0.18Z" style="fill:#ee536d;fill-rule:nonzero;"/></g><g transform="matrix(150,0,0,150,3794.26,4125.48)"><path d="M0.3,0.012c0.169,0 0.258,-0.086 0.263,-0.218l-0.161,-0c-0.006,0.057 -0.041,0.087 -0.091,0.087c-0.068,-0 -0.103,-0.047 -0.103,-0.138l0,-0.008c0,-0.088 0.037,-0.133 0.1,-0.133c0.052,0 0.076,0.027 0.084,0.076l0.168,0c-0.01,-0.159 -0.128,-0.215 -0.256,-0.215c-0.154,0 -0.279,0.1 -0.279,0.274l0,0.008c0,0.176 0.119,0.267 0.275,0.267Z" style="fill:#ee536d;fill-rule:nonzero;"/></g><g transform="matrix(150,0,0,150,3881.71,4125.48)"><path d="M0.053,-0l0.179,-0l0,-0.248c0,-0.084 0.06,-0.118 0.169,-0.115l0,-0.167c-0.081,-0.001 -0.136,0.033 -0.169,0.111l0,-0.104l-0.179,0l-0,0.523Z" style="fill:#ee536d;fill-rule:nonzero;"/></g><g transform="matrix(150,0,0,150,3945.16,4125.48)"><path d="M0.309,0.012c0.158,0 0.249,-0.067 0.265,-0.185l-0.168,-0c-0.007,0.035 -0.032,0.062 -0.091,0.062c-0.064,-0 -0.104,-0.04 -0.109,-0.109l0.368,-0l0,-0.047c0,-0.188 -0.123,-0.27 -0.266,-0.27c-0.158,-0 -0.283,0.106 -0.283,0.274l-0,0.008c-0,0.171 0.12,0.267 0.284,0.267Zm-0.101,-0.333c0.009,-0.063 0.046,-0.098 0.1,-0.098c0.058,-0 0.089,0.035 0.092,0.098l-0.192,-0Z" style="fill:#ee536d;fill-rule:nonzero;"/></g><g transform="matrix(150,0,0,150,4035.61,4125.48)"><path d="M0.2,0.012c0.084,0 0.13,-0.035 0.155,-0.073l0,0.061l0.174,-0l0,-0.339c0,-0.139 -0.092,-0.198 -0.236,-0.198c-0.143,0 -0.242,0.062 -0.25,0.188l0.168,0c0.004,-0.033 0.022,-0.062 0.071,-0.062c0.057,0 0.069,0.033 0.069,0.083l0,0.012l-0.05,0c-0.174,0 -0.278,0.048 -0.278,0.171c-0,0.111 0.083,0.157 0.177,0.157Zm0.062,-0.121c-0.042,-0 -0.062,-0.019 -0.062,-0.049c0,-0.043 0.032,-0.057 0.104,-0.057l0.047,-0l0,0.032c0,0.045 -0.038,0.074 -0.089,0.074Z" style="fill:#ee536d;fill-rule:nonzero;"/></g><g transform="matrix(150,0,0,150,4121.56,4125.48)"><path d="M0.261,0.012c0.042,0 0.076,-0.009 0.099,-0.015l0,-0.136c-0.016,0.006 -0.031,0.009 -0.051,0.009c-0.034,0 -0.053,-0.017 -0.053,-0.055l0,-0.216l0.103,0l0,-0.122l-0.103,0l0,-0.109l-0.179,0l-0,0.109l-0.063,0l-0,0.122l0.063,0l-0,0.233c-0,0.123 0.066,0.18 0.184,0.18Z" style="fill:#ee536d;fill-rule:nonzero;"/></g><g transform="matrix(150,0,0,150,4179.91,4125.48)"><path d="M0.309,0.012c0.158,0 0.249,-0.067 0.265,-0.185l-0.168,-0c-0.007,0.035 -0.032,0.062 -0.091,0.062c-0.064,-0 -0.104,-0.04 -0.109,-0.109l0.368,-0l0,-0.047c0,-0.188 -0.123,-0.27 -0.266,-0.27c-0.158,-0 -0.283,0.106 -0.283,0.274l-0,0.008c-0,0.171 0.12,0.267 0.284,0.267Zm-0.101,-0.333c0.009,-0.063 0.046,-0.098 0.1,-0.098c0.058,-0 0.089,0.035 0.092,0.098l-0.192,-0Z" style="fill:#ee536d;fill-rule:nonzero;"/></g><g transform="matrix(150,0,0,150,4299.16,4125.48)"><path d="M0.2,0.012c0.084,0 0.13,-0.035 0.155,-0.073l0,0.061l0.174,-0l0,-0.339c0,-0.139 -0.092,-0.198 -0.236,-0.198c-0.143,0 -0.242,0.062 -0.25,0.188l0.168,0c0.004,-0.033 0.022,-0.062 0.071,-0.062c0.057,0 0.069,0.033 0.069,0.083l0,0.012l-0.05,0c-0.174,0 -0.278,0.048 -0.278,0.171c-0,0.111 0.083,0.157 0.177,0.157Zm0.062,-0.121c-0.042,-0 -0.062,-0.019 -0.062,-0.049c0,-0.043 0.032,-0.057 0.104,-0.057l0.047,-0l0,0.032c0,0.045 -0.038,0.074 -0.089,0.074Z" style="fill:#ee536d;fill-rule:nonzero;"/></g><g transform="matrix(150,0,0,150,-23.622,4352.73)"><path d="M0.058,-0l0.179,-0l0,-0.523l-0.179,0l0,0.523Zm0.089,-0.573c0.056,0 0.099,-0.039 0.099,-0.092c0,-0.053 -0.043,-0.093 -0.099,-0.093c-0.056,0 -0.098,0.04 -0.098,0.093c0,0.053 0.042,0.092 0.098,0.092Z" style="fill:#ee536d;fill-rule:nonzero;"/></g><g transform="matrix(150,0,0,150,20.628,4352.73)"><path d="M0.053,-0l0.179,-0l0,-0.293c0,-0.067 0.036,-0.099 0.089,-0.099c0.052,0 0.075,0.029 0.075,0.088l0,0.304l0.179,0l0,-0.34c0,-0.134 -0.07,-0.197 -0.171,-0.197c-0.087,0 -0.144,0.044 -0.172,0.098l0,-0.084l-0.179,0l0,0.523Z" style="fill:#ee536d;fill-rule:nonzero;"/></g><g transform="matrix(150,0,0,150,114.228,4352.73)"><path d="M0.261,0.012c0.042,0 0.076,-0.009 0.099,-0.015l0,-0.136c-0.016,0.006 -0.031,0.009 -0.051,0.009c-0.034,0 -0.053,-0.017 -0.053,-0.055l0,-0.216l0.103,0l0,-0.122l-0.103,0l0,-0.109l-0.179,0l-0,0.109l-0.063,0l-0,0.122l0.063,0l-0,0.233c-0,0.123 0.066,0.18 0.184,0.18Z" style="fill:#ee536d;fill-rule:nonzero;"/></g><g transform="matrix(150,0,0,150,172.578,4352.73)"><path d="M0.225,0.012c0.087,0 0.138,-0.039 0.166,-0.093l0,0.081l0.179,-0l0,-0.523l-0.179,0l-0,0.301c-0,0.067 -0.035,0.099 -0.089,0.099c-0.051,0 -0.074,-0.029 -0.074,-0.088l-0,-0.312l-0.179,0l-0,0.341c-0,0.132 0.075,0.194 0.176,0.194Z" style="fill:#ee536d;fill-rule:nonzero;"/></g><g transform="matrix(150,0,0,150,266.028,4352.73)"><path d="M0.058,-0l0.179,-0l0,-0.523l-0.179,0l0,0.523Zm0.089,-0.573c0.056,0 0.099,-0.039 0.099,-0.092c0,-0.053 -0.043,-0.093 -0.099,-0.093c-0.056,0 -0.098,0.04 -0.098,0.093c0,0.053 0.042,0.092 0.098,0.092Z" style="fill:#ee536d;fill-rule:nonzero;"/></g><g transform="matrix(150,0,0,150,310.278,4352.73)"><path d="M0.261,0.012c0.042,0 0.076,-0.009 0.099,-0.015l0,-0.136c-0.016,0.006 -0.031,0.009 -0.051,0.009c-0.034,0 -0.053,-0.017 -0.053,-0.055l0,-0.216l0.103,0l0,-0.122l-0.103,0l0,-0.109l-0.179,0l-0,0.109l-0.063,0l-0,0.122l0.063,0l-0,0.233c-0,0.123 0.066,0.18 0.184,0.18Z" style="fill:#ee536d;fill-rule:nonzero;"/></g><g transform="matrix(150,0,0,150,368.628,4352.73)"><path d="M0.058,-0l0.179,-0l0,-0.523l-0.179,0l0,0.523Zm0.089,-0.573c0.056,0 0.099,-0.039 0.099,-0.092c0,-0.053 -0.043,-0.093 -0.099,-0.093c-0.056,0 -0.098,0.04 -0.098,0.093c0,0.053 0.042,0.092 0.098,0.092Z" style="fill:#ee536d;fill-rule:nonzero;"/></g><g transform="matrix(150,0,0,150,412.878,4352.73)"><path d="M0.2,-0l0.195,-0l0.191,-0.523l-0.171,0l-0.107,0.337l-0.109,-0.337l-0.191,0l0.192,0.523Z" style="fill:#ee536d;fill-rule:nonzero;"/></g><g transform="matrix(150,0,0,150,497.328,4352.73)"><path d="M0.309,0.012c0.158,0 0.249,-0.067 0.265,-0.185l-0.168,-0c-0.007,0.035 -0.032,0.062 -0.091,0.062c-0.064,-0 -0.104,-0.04 -0.109,-0.109l0.368,-0l0,-0.047c0,-0.188 -0.123,-0.27 -0.266,-0.27c-0.158,-0 -0.283,0.106 -0.283,0.274l-0,0.008c-0,0.171 0.12,0.267 0.284,0.267Zm-0.101,-0.333c0.009,-0.063 0.046,-0.098 0.1,-0.098c0.058,-0 0.089,0.035 0.092,0.098l-0.192,-0Z" style="fill:#ee536d;fill-rule:nonzero;"/></g><g transform="matrix(150,0,0,150,616.578,4352.73)"><path d="M0.225,0.012c0.087,0 0.138,-0.039 0.166,-0.093l0,0.081l0.179,-0l0,-0.523l-0.179,0l-0,0.301c-0,0.067 -0.035,0.099 -0.089,0.099c-0.051,0 -0.074,-0.029 -0.074,-0.088l-0,-0.312l-0.179,0l-0,0.341c-0,0.132 0.075,0.194 0.176,0.194Z" style="fill:#ee536d;fill-rule:nonzero;"/></g><g transform="matrix(150,0,0,150,710.028,4352.73)"><path d="M0.053,-0l0.179,-0l0,-0.293c0,-0.067 0.036,-0.099 0.089,-0.099c0.052,0 0.075,0.029 0.075,0.088l0,0.304l0.179,0l0,-0.34c0,-0.134 -0.07,-0.197 -0.171,-0.197c-0.087,0 -0.144,0.044 -0.172,0.098l0,-0.084l-0.179,0l0,0.523Z" style="fill:#ee536d;fill-rule:nonzero;"/></g><g transform="matrix(150,0,0,150,803.628,4352.73)"><path d="M0.247,0.012c0.079,0 0.137,-0.043 0.163,-0.097l0,0.085l0.179,-0l0,-0.753l-0.179,0l0,0.304c-0.03,-0.053 -0.079,-0.088 -0.161,-0.088c-0.124,0 -0.222,0.095 -0.222,0.273l0,0.008c0,0.181 0.099,0.268 0.22,0.268Zm0.063,-0.137c-0.062,0 -0.101,-0.045 -0.101,-0.133l0,-0.008c0,-0.091 0.036,-0.136 0.103,-0.136c0.066,0 0.103,0.047 0.103,0.135l0,0.008c0,0.089 -0.04,0.134 -0.105,0.134Z" style="fill:#ee536d;fill-rule:nonzero;"/></g><g transform="matrix(150,0,0,150,899.928,4352.73)"><path d="M0.309,0.012c0.158,0 0.249,-0.067 0.265,-0.185l-0.168,-0c-0.007,0.035 -0.032,0.062 -0.091,0.062c-0.064,-0 -0.104,-0.04 -0.109,-0.109l0.368,-0l0,-0.047c0,-0.188 -0.123,-0.27 -0.266,-0.27c-0.158,-0 -0.283,0.106 -0.283,0.274l-0,0.008c-0,0.171 0.12,0.267 0.284,0.267Zm-0.101,-0.333c0.009,-0.063 0.046,-0.098 0.1,-0.098c0.058,-0 0.089,0.035 0.092,0.098l-0.192,-0Z" style="fill:#ee536d;fill-rule:nonzero;"/></g><g transform="matrix(150,0,0,150,989.628,4352.73)"><path d="M0.053,-0l0.179,-0l0,-0.248c0,-0.084 0.06,-0.118 0.169,-0.115l0,-0.167c-0.081,-0.001 -0.136,0.033 -0.169,0.111l0,-0.104l-0.179,0l-0,0.523Z" style="fill:#ee536d;fill-rule:nonzero;"/></g><g transform="matrix(150,0,0,150,1053.83,4352.73)"><path d="M0.258,0.012c0.145,0 0.237,-0.056 0.237,-0.18c0,-0.112 -0.07,-0.15 -0.215,-0.168c-0.064,-0.008 -0.088,-0.018 -0.088,-0.043c-0,-0.024 0.02,-0.041 0.059,-0.041c0.041,-0 0.06,0.017 0.067,0.052l0.162,-0c-0.012,-0.125 -0.102,-0.169 -0.231,-0.169c-0.121,-0 -0.224,0.056 -0.224,0.172c-0,0.109 0.059,0.15 0.199,0.168c0.072,0.01 0.097,0.022 0.097,0.047c-0,0.026 -0.02,0.043 -0.064,0.043c-0.051,-0 -0.068,-0.021 -0.074,-0.059l-0.165,-0c0.004,0.116 0.091,0.178 0.24,0.178Z" style="fill:#ee536d;fill-rule:nonzero;"/></g><g transform="matrix(150,0,0,150,1131.08,4352.73)"><path d="M0.261,0.012c0.042,0 0.076,-0.009 0.099,-0.015l0,-0.136c-0.016,0.006 -0.031,0.009 -0.051,0.009c-0.034,0 -0.053,-0.017 -0.053,-0.055l0,-0.216l0.103,0l0,-0.122l-0.103,0l0,-0.109l-0.179,0l-0,0.109l-0.063,0l-0,0.122l0.063,0l-0,0.233c-0,0.123 0.066,0.18 0.184,0.18Z" style="fill:#ee536d;fill-rule:nonzero;"/></g><g transform="matrix(150,0,0,150,1189.43,4352.73)"><path d="M0.2,0.012c0.084,0 0.13,-0.035 0.155,-0.073l0,0.061l0.174,-0l0,-0.339c0,-0.139 -0.092,-0.198 -0.236,-0.198c-0.143,0 -0.242,0.062 -0.25,0.188l0.168,0c0.004,-0.033 0.022,-0.062 0.071,-0.062c0.057,0 0.069,0.033 0.069,0.083l0,0.012l-0.05,0c-0.174,0 -0.278,0.048 -0.278,0.171c-0,0.111 0.083,0.157 0.177,0.157Zm0.062,-0.121c-0.042,-0 -0.062,-0.019 -0.062,-0.049c0,-0.043 0.032,-0.057 0.104,-0.057l0.047,-0l0,0.032c0,0.045 -0.038,0.074 -0.089,0.074Z" style="fill:#ee536d;fill-rule:nonzero;"/></g><g transform="matrix(150,0,0,150,1276.13,4352.73)"><path d="M0.053,-0l0.179,-0l0,-0.293c0,-0.067 0.036,-0.099 0.089,-0.099c0.052,0 0.075,0.029 0.075,0.088l0,0.304l0.179,0l0,-0.34c0,-0.134 -0.07,-0.197 -0.171,-0.197c-0.087,0 -0.144,0.044 -0.172,0.098l0,-0.084l-0.179,0l0,0.523Z" style="fill:#ee536d;fill-rule:nonzero;"/></g><g transform="matrix(150,0,0,150,1369.73,4352.73)"><path d="M0.247,0.012c0.079,0 0.137,-0.043 0.163,-0.097l0,0.085l0.179,-0l0,-0.753l-0.179,0l0,0.304c-0.03,-0.053 -0.079,-0.088 -0.161,-0.088c-0.124,0 -0.222,0.095 -0.222,0.273l0,0.008c0,0.181 0.099,0.268 0.22,0.268Zm0.063,-0.137c-0.062,0 -0.101,-0.045 -0.101,-0.133l0,-0.008c0,-0.091 0.036,-0.136 0.103,-0.136c0.066,0 0.103,0.047 0.103,0.135l0,0.008c0,0.089 -0.04,0.134 -0.105,0.134Z" style="fill:#ee536d;fill-rule:nonzero;"/></g><g transform="matrix(150,0,0,150,1466.03,4352.73)"><path d="M0.058,-0l0.179,-0l0,-0.523l-0.179,0l0,0.523Zm0.089,-0.573c0.056,0 0.099,-0.039 0.099,-0.092c0,-0.053 -0.043,-0.093 -0.099,-0.093c-0.056,0 -0.098,0.04 -0.098,0.093c0,0.053 0.042,0.092 0.098,0.092Z" style="fill:#ee536d;fill-rule:nonzero;"/></g><g transform="matrix(150,0,0,150,1510.28,4352.73)"><path d="M0.053,-0l0.179,-0l0,-0.293c0,-0.067 0.036,-0.099 0.089,-0.099c0.052,0 0.075,0.029 0.075,0.088l0,0.304l0.179,0l0,-0.34c0,-0.134 -0.07,-0.197 -0.171,-0.197c-0.087,0 -0.144,0.044 -0.172,0.098l0,-0.084l-0.179,0l0,0.523Z" style="fill:#ee536d;fill-rule:nonzero;"/></g><g transform="matrix(150,0,0,150,1603.88,4352.73)"><path d="M0.298,0.194c0.187,0 0.29,-0.082 0.29,-0.238l0,-0.479l-0.179,0l0,0.074c-0.03,-0.053 -0.079,-0.088 -0.162,-0.088c-0.123,0 -0.222,0.098 -0.222,0.252l0,0.008c0,0.161 0.1,0.251 0.222,0.251c0.078,0 0.135,-0.046 0.162,-0.096l0,0.08c0,0.065 -0.032,0.11 -0.111,0.11c-0.065,0 -0.088,-0.03 -0.096,-0.068l-0.178,0c0.014,0.119 0.096,0.194 0.274,0.194Zm0.012,-0.352c-0.064,0 -0.102,-0.046 -0.102,-0.118l-0,-0.008c-0,-0.072 0.036,-0.119 0.103,-0.119c0.066,0 0.103,0.046 0.103,0.118l0,0.007c0,0.074 -0.04,0.12 -0.104,0.12Z" style="fill:#ee536d;fill-rule:nonzero;"/></g><g transform="matrix(150,0,0,150,1729.58,4352.73)"><path d="M0.312,-0.121c-0.069,0 -0.104,-0.049 -0.104,-0.139l0,-0.008c0,-0.088 0.037,-0.135 0.104,-0.135c0.068,0 0.103,0.049 0.103,0.137l0,0.008c0,0.087 -0.036,0.137 -0.103,0.137Zm-0.001,0.133c0.161,-0 0.286,-0.102 0.286,-0.272l-0,-0.008c-0,-0.166 -0.124,-0.269 -0.285,-0.269c-0.162,0 -0.287,0.106 -0.287,0.274l-0,0.008c-0,0.169 0.125,0.267 0.286,0.267Z" style="fill:#ee536d;fill-rule:nonzero;"/></g><g transform="matrix(150,0,0,150,1822.88,4352.73)"><path d="M0.08,-0l0.178,-0l0,-0.401l0.106,0l0,-0.122l-0.106,0l0,-0.046c0,-0.034 0.018,-0.057 0.06,-0.057c0.02,0 0.036,0.003 0.049,0.007l0,-0.131c-0.024,-0.006 -0.049,-0.011 -0.082,-0.011c-0.124,0 -0.205,0.062 -0.205,0.192l0,0.046l-0.066,0l0,0.122l0.066,0l0,0.401Z" style="fill:#ee536d;fill-rule:nonzero;"/></g><g transform="matrix(150,0,0,150,1910.33,4352.73)"><path d="M0.053,-0l0.179,-0l0,-0.293c0,-0.067 0.036,-0.099 0.089,-0.099c0.052,0 0.075,0.029 0.075,0.088l0,0.304l0.179,0l0,-0.34c0,-0.134 -0.07,-0.197 -0.171,-0.197c-0.087,0 -0.144,0.044 -0.172,0.098l0,-0.314l-0.179,0l0,0.753Z" style="fill:#ee536d;fill-rule:nonzero;"/></g><g transform="matrix(150,0,0,150,2003.93,4352.73)"><path d="M0.312,-0.121c-0.069,0 -0.104,-0.049 -0.104,-0.139l0,-0.008c0,-0.088 0.037,-0.135 0.104,-0.135c0.068,0 0.103,0.049 0.103,0.137l0,0.008c0,0.087 -0.036,0.137 -0.103,0.137Zm-0.001,0.133c0.161,-0 0.286,-0.102 0.286,-0.272l-0,-0.008c-0,-0.166 -0.124,-0.269 -0.285,-0.269c-0.162,0 -0.287,0.106 -0.287,0.274l-0,0.008c-0,0.169 0.125,0.267 0.286,0.267Z" style="fill:#ee536d;fill-rule:nonzero;"/></g><g transform="matrix(150,0,0,150,2094.98,4352.73)"><path d="M0.167,-0l0.174,-0l0.081,-0.292l0.078,0.292l0.171,-0l0.166,-0.523l-0.17,0l-0.085,0.313l-0.078,-0.313l-0.144,0l-0.088,0.313l-0.076,-0.313l-0.187,0l0.158,0.523Z" style="fill:#ee536d;fill-rule:nonzero;"/></g><g transform="matrix(150,0,0,150,2251.28,4352.73)"><path d="M0.261,0.012c0.042,0 0.076,-0.009 0.099,-0.015l0,-0.136c-0.016,0.006 -0.031,0.009 -0.051,0.009c-0.034,0 -0.053,-0.017 -0.053,-0.055l0,-0.216l0.103,0l0,-0.122l-0.103,0l0,-0.109l-0.179,0l-0,0.109l-0.063,0l-0,0.122l0.063,0l-0,0.233c-0,0.123 0.066,0.18 0.184,0.18Z" style="fill:#ee536d;fill-rule:nonzero;"/></g><g transform="matrix(150,0,0,150,2309.63,4352.73)"><path d="M0.053,-0l0.179,-0l0,-0.293c0,-0.067 0.036,-0.099 0.089,-0.099c0.052,0 0.075,0.029 0.075,0.088l0,0.304l0.179,0l0,-0.34c0,-0.134 -0.07,-0.197 -0.171,-0.197c-0.087,0 -0.144,0.044 -0.172,0.098l0,-0.314l-0.179,0l0,0.753Z" style="fill:#ee536d;fill-rule:nonzero;"/></g><g transform="matrix(150,0,0,150,2403.23,4352.73)"><path d="M0.309,0.012c0.158,0 0.249,-0.067 0.265,-0.185l-0.168,-0c-0.007,0.035 -0.032,0.062 -0.091,0.062c-0.064,-0 -0.104,-0.04 -0.109,-0.109l0.368,-0l0,-0.047c0,-0.188 -0.123,-0.27 -0.266,-0.27c-0.158,-0 -0.283,0.106 -0.283,0.274l-0,0.008c-0,0.171 0.12,0.267 0.284,0.267Zm-0.101,-0.333c0.009,-0.063 0.046,-0.098 0.1,-0.098c0.058,-0 0.089,0.035 0.092,0.098l-0.192,-0Z" style="fill:#ee536d;fill-rule:nonzero;"/></g><g transform="matrix(150,0,0,150,2493.68,4352.73)"><path d="M0.258,0.012c0.145,0 0.237,-0.056 0.237,-0.18c0,-0.112 -0.07,-0.15 -0.215,-0.168c-0.064,-0.008 -0.088,-0.018 -0.088,-0.043c-0,-0.024 0.02,-0.041 0.059,-0.041c0.041,-0 0.06,0.017 0.067,0.052l0.162,-0c-0.012,-0.125 -0.102,-0.169 -0.231,-0.169c-0.121,-0 -0.224,0.056 -0.224,0.172c-0,0.109 0.059,0.15 0.199,0.168c0.072,0.01 0.097,0.022 0.097,0.047c-0,0.026 -0.02,0.043 -0.064,0.043c-0.051,-0 -0.068,-0.021 -0.074,-0.059l-0.165,-0c0.004,0.116 0.091,0.178 0.24,0.178Z" style="fill:#ee536d;fill-rule:nonzero;"/></g><g transform="matrix(150,0,0,150,2571.68,4352.73)"><path d="M0.309,0.012c0.158,0 0.249,-0.067 0.265,-0.185l-0.168,-0c-0.007,0.035 -0.032,0.062 -0.091,0.062c-0.064,-0 -0.104,-0.04 -0.109,-0.109l0.368,-0l0,-0.047c0,-0.188 -0.123,-0.27 -0.266,-0.27c-0.158,-0 -0.283,0.106 -0.283,0.274l-0,0.008c-0,0.171 0.12,0.267 0.284,0.267Zm-0.101,-0.333c0.009,-0.063 0.046,-0.098 0.1,-0.098c0.058,-0 0.089,0.035 0.092,0.098l-0.192,-0Z" style="fill:#ee536d;fill-rule:nonzero;"/></g><g transform="matrix(150,0,0,150,2690.93,4352.73)"><path d="M0.3,0.012c0.169,0 0.258,-0.086 0.263,-0.218l-0.161,-0c-0.006,0.057 -0.041,0.087 -0.091,0.087c-0.068,-0 -0.103,-0.047 -0.103,-0.138l0,-0.008c0,-0.088 0.037,-0.133 0.1,-0.133c0.052,0 0.076,0.027 0.084,0.076l0.168,0c-0.01,-0.159 -0.128,-0.215 -0.256,-0.215c-0.154,0 -0.279,0.1 -0.279,0.274l0,0.008c0,0.176 0.119,0.267 0.275,0.267Z" style="fill:#ee536d;fill-rule:nonzero;"/></g><g transform="matrix(150,0,0,150,2775.38,4352.73)"><path d="M0.13,0.175l0.171,0l0.28,-0.698l-0.171,0l-0.1,0.279l-0.108,-0.279l-0.194,0l0.209,0.47l-0.087,0.228Z" style="fill:#ee536d;fill-rule:nonzero;"/></g><g transform="matrix(150,0,0,150,2859.23,4352.73)"><path d="M0.3,0.012c0.169,0 0.258,-0.086 0.263,-0.218l-0.161,-0c-0.006,0.057 -0.041,0.087 -0.091,0.087c-0.068,-0 -0.103,-0.047 -0.103,-0.138l0,-0.008c0,-0.088 0.037,-0.133 0.1,-0.133c0.052,0 0.076,0.027 0.084,0.076l0.168,0c-0.01,-0.159 -0.128,-0.215 -0.256,-0.215c-0.154,0 -0.279,0.1 -0.279,0.274l0,0.008c0,0.176 0.119,0.267 0.275,0.267Z" style="fill:#ee536d;fill-rule:nonzero;"/></g><g transform="matrix(150,0,0,150,2946.68,4352.73)"><rect x="0.058" y="-0.753" width="0.178" height="0.753" style="fill:#ee536d;fill-rule:nonzero;"/></g><g transform="matrix(150,0,0,150,2990.78,4352.73)"><path d="M0.309,0.012c0.158,0 0.249,-0.067 0.265,-0.185l-0.168,-0c-0.007,0.035 -0.032,0.062 -0.091,0.062c-0.064,-0 -0.104,-0.04 -0.109,-0.109l0.368,-0l0,-0.047c0,-0.188 -0.123,-0.27 -0.266,-0.27c-0.158,-0 -0.283,0.106 -0.283,0.274l-0,0.008c-0,0.171 0.12,0.267 0.284,0.267Zm-0.101,-0.333c0.009,-0.063 0.046,-0.098 0.1,-0.098c0.058,-0 0.089,0.035 0.092,0.098l-0.192,-0Z" style="fill:#ee536d;fill-rule:nonzero;"/></g><g transform="matrix(150,0,0,150,3081.23,4352.73)"><path d="M0.258,0.012c0.145,0 0.237,-0.056 0.237,-0.18c0,-0.112 -0.07,-0.15 -0.215,-0.168c-0.064,-0.008 -0.088,-0.018 -0.088,-0.043c-0,-0.024 0.02,-0.041 0.059,-0.041c0.041,-0 0.06,0.017 0.067,0.052l0.162,-0c-0.012,-0.125 -0.102,-0.169 -0.231,-0.169c-0.121,-0 -0.224,0.056 -0.224,0.172c-0,0.109 0.059,0.15 0.199,0.168c0.072,0.01 0.097,0.022 0.097,0.047c-0,0.026 -0.02,0.043 -0.064,0.043c-0.051,-0 -0.068,-0.021 -0.074,-0.059l-0.165,-0c0.004,0.116 0.091,0.178 0.24,0.178Z" style="fill:#ee536d;fill-rule:nonzero;"/></g><g transform="matrix(150,0,0,150,3188.03,4352.73)"><path d="M0.053,0.175l0.179,0l0,-0.252c0.026,0.052 0.083,0.089 0.162,0.089c0.123,-0 0.222,-0.09 0.222,-0.27l0,-0.008c0,-0.179 -0.099,-0.271 -0.221,-0.271c-0.079,0 -0.133,0.042 -0.163,0.092l0,-0.078l-0.179,0l-0,0.698Zm0.278,-0.3c-0.065,-0 -0.104,-0.045 -0.104,-0.134l-0,-0.008c-0,-0.088 0.039,-0.135 0.104,-0.135c0.063,-0 0.103,0.044 0.103,0.136l-0,0.008c-0,0.086 -0.036,0.133 -0.103,0.133Z" style="fill:#ee536d;fill-rule:nonzero;"/></g><g transform="matrix(150,0,0,150,3284.48,4352.73)"><path d="M0.2,0.012c0.084,0 0.13,-0.035 0.155,-0.073l0,0.061l0.174,-0l0,-0.339c0,-0.139 -0.092,-0.198 -0.236,-0.198c-0.143,0 -0.242,0.062 -0.25,0.188l0.168,0c0.004,-0.033 0.022,-0.062 0.071,-0.062c0.057,0 0.069,0.033 0.069,0.083l0,0.012l-0.05,0c-0.174,0 -0.278,0.048 -0.278,0.171c-0,0.111 0.083,0.157 0.177,0.157Zm0.062,-0.121c-0.042,-0 -0.062,-0.019 -0.062,-0.049c0,-0.043 0.032,-0.057 0.104,-0.057l0.047,-0l0,0.032c0,0.045 -0.038,0.074 -0.089,0.074Z" style="fill:#ee536d;fill-rule:nonzero;"/></g><g transform="matrix(150,0,0,150,3371.18,4352.73)"><path d="M0.258,0.012c0.145,0 0.237,-0.056 0.237,-0.18c0,-0.112 -0.07,-0.15 -0.215,-0.168c-0.064,-0.008 -0.088,-0.018 -0.088,-0.043c-0,-0.024 0.02,-0.041 0.059,-0.041c0.041,-0 0.06,0.017 0.067,0.052l0.162,-0c-0.012,-0.125 -0.102,-0.169 -0.231,-0.169c-0.121,-0 -0.224,0.056 -0.224,0.172c-0,0.109 0.059,0.15 0.199,0.168c0.072,0.01 0.097,0.022 0.097,0.047c-0,0.026 -0.02,0.043 -0.064,0.043c-0.051,-0 -0.068,-0.021 -0.074,-0.059l-0.165,-0c0.004,0.116 0.091,0.178 0.24,0.178Z" style="fill:#ee536d;fill-rule:nonzero;"/></g><g transform="matrix(150,0,0,150,3449.18,4352.73)"><path d="M0.258,0.012c0.145,0 0.237,-0.056 0.237,-0.18c0,-0.112 -0.07,-0.15 -0.215,-0.168c-0.064,-0.008 -0.088,-0.018 -0.088,-0.043c-0,-0.024 0.02,-0.041 0.059,-0.041c0.041,-0 0.06,0.017 0.067,0.052l0.162,-0c-0.012,-0.125 -0.102,-0.169 -0.231,-0.169c-0.121,-0 -0.224,0.056 -0.224,0.172c-0,0.109 0.059,0.15 0.199,0.168c0.072,0.01 0.097,0.022 0.097,0.047c-0,0.026 -0.02,0.043 -0.064,0.043c-0.051,-0 -0.068,-0.021 -0.074,-0.059l-0.165,-0c0.004,0.116 0.091,0.178 0.24,0.178Z" style="fill:#ee536d;fill-rule:nonzero;"/></g><g transform="matrix(150,0,0,150,3555.98,4352.73)"><path d="M0.2,0.012c0.084,0 0.13,-0.035 0.155,-0.073l0,0.061l0.174,-0l0,-0.339c0,-0.139 -0.092,-0.198 -0.236,-0.198c-0.143,0 -0.242,0.062 -0.25,0.188l0.168,0c0.004,-0.033 0.022,-0.062 0.071,-0.062c0.057,0 0.069,0.033 0.069,0.083l0,0.012l-0.05,0c-0.174,0 -0.278,0.048 -0.278,0.171c-0,0.111 0.083,0.157 0.177,0.157Zm0.062,-0.121c-0.042,-0 -0.062,-0.019 -0.062,-0.049c0,-0.043 0.032,-0.057 0.104,-0.057l0.047,-0l0,0.032c0,0.045 -0.038,0.074 -0.089,0.074Z" style="fill:#ee536d;fill-rule:nonzero;"/></g><g transform="matrix(150,0,0,150,3642.68,4352.73)"><path d="M0.053,-0l0.179,-0l0,-0.248c0,-0.084 0.06,-0.118 0.169,-0.115l0,-0.167c-0.081,-0.001 -0.136,0.033 -0.169,0.111l0,-0.104l-0.179,0l-0,0.523Z" style="fill:#ee536d;fill-rule:nonzero;"/></g><g transform="matrix(150,0,0,150,3706.13,4352.73)"><path d="M0.312,-0.121c-0.069,0 -0.104,-0.049 -0.104,-0.139l0,-0.008c0,-0.088 0.037,-0.135 0.104,-0.135c0.068,0 0.103,0.049 0.103,0.137l0,0.008c0,0.087 -0.036,0.137 -0.103,0.137Zm-0.001,0.133c0.161,-0 0.286,-0.102 0.286,-0.272l-0,-0.008c-0,-0.166 -0.124,-0.269 -0.285,-0.269c-0.162,0 -0.287,0.106 -0.287,0.274l-0,0.008c-0,0.169 0.125,0.267 0.286,0.267Z" style="fill:#ee536d;fill-rule:nonzero;"/></g><g transform="matrix(150,0,0,150,3799.43,4352.73)"><path d="M0.225,0.012c0.087,0 0.138,-0.039 0.166,-0.093l0,0.081l0.179,-0l0,-0.523l-0.179,0l-0,0.301c-0,0.067 -0.035,0.099 -0.089,0.099c-0.051,0 -0.074,-0.029 -0.074,-0.088l-0,-0.312l-0.179,0l-0,0.341c-0,0.132 0.075,0.194 0.176,0.194Z" style="fill:#ee536d;fill-rule:nonzero;"/></g><g transform="matrix(150,0,0,150,3892.88,4352.73)"><path d="M0.053,-0l0.179,-0l0,-0.293c0,-0.067 0.036,-0.099 0.089,-0.099c0.052,0 0.075,0.029 0.075,0.088l0,0.304l0.179,0l0,-0.34c0,-0.134 -0.07,-0.197 -0.171,-0.197c-0.087,0 -0.144,0.044 -0.172,0.098l0,-0.084l-0.179,0l0,0.523Z" style="fill:#ee536d;fill-rule:nonzero;"/></g><g transform="matrix(150,0,0,150,3986.48,4352.73)"><path d="M0.247,0.012c0.079,0 0.137,-0.043 0.163,-0.097l0,0.085l0.179,-0l0,-0.753l-0.179,0l0,0.304c-0.03,-0.053 -0.079,-0.088 -0.161,-0.088c-0.124,0 -0.222,0.095 -0.222,0.273l0,0.008c0,0.181 0.099,0.268 0.22,0.268Zm0.063,-0.137c-0.062,0 -0.101,-0.045 -0.101,-0.133l0,-0.008c0,-0.091 0.036,-0.136 0.103,-0.136c0.066,0 0.103,0.047 0.103,0.135l0,0.008c0,0.089 -0.04,0.134 -0.105,0.134Z" style="fill:#ee536d;fill-rule:nonzero;"/></g><g transform="matrix(150,0,0,150,4112.33,4352.73)"><path d="M0.225,0.012c0.087,0 0.138,-0.039 0.166,-0.093l0,0.081l0.179,-0l0,-0.523l-0.179,0l-0,0.301c-0,0.067 -0.035,0.099 -0.089,0.099c-0.051,0 -0.074,-0.029 -0.074,-0.088l-0,-0.312l-0.179,0l-0,0.341c-0,0.132 0.075,0.194 0.176,0.194Z" style="fill:#ee536d;fill-rule:nonzero;"/></g><g transform="matrix(150,0,0,150,4205.78,4352.73)"><path d="M0.258,0.012c0.145,0 0.237,-0.056 0.237,-0.18c0,-0.112 -0.07,-0.15 -0.215,-0.168c-0.064,-0.008 -0.088,-0.018 -0.088,-0.043c-0,-0.024 0.02,-0.041 0.059,-0.041c0.041,-0 0.06,0.017 0.067,0.052l0.162,-0c-0.012,-0.125 -0.102,-0.169 -0.231,-0.169c-0.121,-0 -0.224,0.056 -0.224,0.172c-0,0.109 0.059,0.15 0.199,0.168c0.072,0.01 0.097,0.022 0.097,0.047c-0,0.026 -0.02,0.043 -0.064,0.043c-0.051,-0 -0.068,-0.021 -0.074,-0.059l-0.165,-0c0.004,0.116 0.091,0.178 0.24,0.178Z" style="fill:#ee536d;fill-rule:nonzero;"/></g><g transform="matrix(150,0,0,150,4283.03,4352.73)"><path d="M0.148,0.011c0.06,0 0.105,-0.045 0.105,-0.101c0,-0.056 -0.045,-0.101 -0.105,-0.101c-0.059,0 -0.102,0.045 -0.102,0.101c-0,0.056 0.043,0.101 0.102,0.101Z" style="fill:#ee536d;fill-rule:nonzero;"/></g></g></svg>