<?xml version="1.0" encoding="UTF-8" standalone="no"?><!DOCTYPE svg PUBLIC "-//W3C//DTD SVG 1.1//EN" "http://www.w3.org/Graphics/SVG/1.1/DTD/svg11.dtd"><svg width="100%" height="100%" viewBox="0 0 2233 2994" version="1.1" xmlns="http://www.w3.org/2000/svg" xmlns:xlink="http://www.w3.org/1999/xlink" xml:space="preserve" xmlns:serif="http://www.serif.com/" style="fill-rule:evenodd;clip-rule:evenodd;stroke-linecap:square;stroke-linejoin:round;stroke-miterlimit:1.5;"><rect id="_2" serif:id="2" x="0.46" y="-258.976" width="4960.63" height="3507.87" style="fill:none;"/><path d="M391.524,1647.66c253.112,-37.713 515.153,-57.495 783.459,-57.495c268.306,0 530.348,19.782 783.459,57.495" style="fill:none;stroke:#6b80a4;stroke-width:4.17px;"/><path d="M945.666,1562.88l0,-106.066l-106.066,-0" style="fill:none;stroke:#6b80a4;stroke-width:12.5px;stroke-linecap:butt;stroke-linejoin:miter;stroke-miterlimit:10;"/><path d="M945.666,1456.81c-54.119,54.119 -441.44,441.441 -441.44,441.441" style="fill:none;stroke:#6b80a4;stroke-width:12.5px;"/><path d="M1841.05,667.496l-0,-106.066l-106.066,0" style="fill:none;stroke:#6b80a4;stroke-width:12.5px;stroke-linecap:butt;stroke-linejoin:miter;stroke-miterlimit:10;"/><path d="M1841.05,561.43c-54.119,54.119 -441.441,441.441 -441.441,441.441" style="fill:none;stroke:#6b80a4;stroke-width:12.5px;"/><path d="M1511.92,1456.81l-106.066,-0l0,106.066" style="fill:none;stroke:#6b80a4;stroke-width:12.5px;stroke-linecap:butt;stroke-linejoin:miter;stroke-miterlimit:10;"/><path d="M1405.86,1456.81c54.119,54.119 441.441,441.441 441.441,441.441" style="fill:none;stroke:#6b80a4;stroke-width:12.5px;"/><path d="M616.542,548.577l-106.066,0l-0,106.066" style="fill:none;stroke:#6b80a4;stroke-width:12.5px;stroke-linecap:butt;stroke-linejoin:miter;stroke-miterlimit:10;"/><path d="M510.476,548.577c54.119,54.119 441.44,441.441 441.44,441.441" style="fill:none;stroke:#6b80a4;stroke-width:12.5px;"/><path d="M567.081,2803.85l62.1,-0l0,-10.65l-49.05,-0l0,-96.6l-13.05,-0l0,107.25Z" style="fill:#ee536d;fill-rule:nonzero;"/><path d="M646.731,2803.85l12.45,-0l0,-78.45l-12.45,-0l0,78.45Zm6,-94.8c4.5,-0 8.25,-3.75 8.25,-8.25c0,-4.5 -3.75,-8.25 -8.25,-8.25c-4.5,-0 -8.25,3.75 -8.25,8.25c0,4.5 3.75,8.25 8.25,8.25Z" style="fill:#ee536d;fill-rule:nonzero;"/><path d="M684.681,2803.85l12.45,-0l0,-47.55c0,-14.1 10.35,-21.45 21.9,-21.45c12.6,-0 18.45,6.15 18.45,19.95l0,49.05l12.45,-0l0,-48.15c0,-22.8 -11.4,-31.65 -27.6,-31.65c-12.9,-0 -21.6,6.45 -25.2,13.8l0,-12.45l-12.45,-0l0,78.45Z" style="fill:#ee536d;fill-rule:nonzero;"/><path d="M806.481,2805.2c17.7,-0 30.75,-8.25 33.45,-24l-12.45,-0c-1.65,9.15 -8.7,13.65 -20.85,13.65c-16.05,-0 -24.6,-9.9 -25.2,-27.75l59.1,-0l0,-4.05c0,-28.05 -17.1,-39 -35.25,-39c-21.6,-0 -36.75,16.5 -36.75,40.2l0,1.2c0,24.15 15.75,39.75 37.95,39.75Zm-24.6,-48.15c2.1,-13.95 10.65,-22.65 23.4,-22.65c12.9,-0 21.3,6.45 22.5,22.65l-45.9,-0Z" style="fill:#ee536d;fill-rule:nonzero;"/><path d="M879.981,2805.2c11.55,-0 18.6,-3.9 24.45,-11.25l0,9.9l12.45,-0l0,-51.75c0,-21.9 -13.65,-28.05 -28.65,-28.05c-15.15,-0 -29.4,6.6 -31.05,24.45l12.45,-0c1.2,-9.6 7.2,-14.1 18,-14.1c12,-0 16.8,5.25 16.8,17.7l0,5.7l-11.25,-0c-20.1,-0 -39.3,6.15 -39.3,24.3c0,16.05 11.55,23.1 26.1,23.1Zm1.2,-9.9c-10.95,-0 -14.85,-5.1 -14.85,-13.2c0,-11.55 11.55,-15.45 27.3,-15.45l10.8,-0l0,9.75c0,12.15 -10.05,18.9 -23.25,18.9Z" style="fill:#ee536d;fill-rule:nonzero;"/><path d="M941.331,2803.85l12.45,-0l0,-43.05c0,-19.35 10.05,-24.3 25.8,-25.05l0,-11.7c-14.1,0.45 -20.85,6.6 -25.8,15.45l0,-14.1l-12.45,-0l0,78.45Z" style="fill:#ee536d;fill-rule:nonzero;"/><rect x="1031.63" y="2757.2" width="119.25" height="10.5" style="fill:#ee536d;fill-rule:nonzero;"/><path d="M1210.88,2803.85l65.25,-0l0,-10.65l-52.2,-0l0,-38.85l39.9,-0l0,-10.65l-39.9,-0l0,-36.45l49.5,-0l0,-10.65l-62.55,-0l0,107.25Z" style="fill:#ee536d;fill-rule:nonzero;"/><path d="M1287.23,2803.85l13.35,-0l21.6,-31.65l21.15,31.65l14.7,-0l-28.65,-41.25l25.95,-37.2l-13.5,-0l-19.05,28.5l-19.2,-28.5l-14.55,-0l26.25,38.1l-28.05,40.35Z" style="fill:#ee536d;fill-rule:nonzero;"/><path d="M1398.68,2804.9c5.1,-0 8.1,-0.75 10.65,-1.65l0,-10.5c-2.7,1.05 -5.7,1.65 -9.6,1.65c-6.3,-0 -9.75,-3.75 -9.75,-11.4l0,-47.1l18.3,-0l0,-10.5l-18.3,-0l0,-17.85l-12.45,-0l0,17.85l-11.25,-0l0,10.5l11.25,-0l0,48.3c0,12.3 6.9,20.7 21.15,20.7Z" style="fill:#ee536d;fill-rule:nonzero;"/><path d="M1428.08,2803.85l12.45,-0l0,-43.05c0,-19.35 10.05,-24.3 25.8,-25.05l0,-11.7c-14.1,0.45 -20.85,6.6 -25.8,15.45l0,-14.1l-12.45,-0l0,78.45Z" style="fill:#ee536d;fill-rule:nonzero;"/><path d="M1503.38,2805.2c11.55,-0 18.6,-3.9 24.45,-11.25l0,9.9l12.45,-0l0,-51.75c0,-21.9 -13.65,-28.05 -28.65,-28.05c-15.15,-0 -29.4,6.6 -31.05,24.45l12.45,-0c1.2,-9.6 7.2,-14.1 18,-14.1c12,-0 16.8,5.25 16.8,17.7l0,5.7l-11.25,-0c-20.1,-0 -39.3,6.15 -39.3,24.3c0,16.05 11.55,23.1 26.1,23.1Zm1.2,-9.9c-10.95,-0 -14.85,-5.1 -14.85,-13.2c0,-11.55 11.55,-15.45 27.3,-15.45l10.8,-0l0,9.75c0,12.15 -10.05,18.9 -23.25,18.9Z" style="fill:#ee536d;fill-rule:nonzero;"/><path d="M1597.28,2805.2c18.9,-0 32.55,-12.6 34.2,-29.55l-11.55,-0c-1.35,12.75 -11.4,19.2 -22.5,19.2c-15.15,-0 -25.65,-10.2 -25.65,-29.4l0,-1.2c0,-18.45 10.95,-29.85 25.2,-29.85c10.8,-0 19.8,4.65 21.75,17.1l12.3,-0c-2.4,-19.95 -17.7,-27.45 -34.05,-27.45c-21,-0 -38.1,16.2 -38.1,40.2l0,1.2c0,24.3 16.5,39.75 38.4,39.75Z" style="fill:#ee536d;fill-rule:nonzero;"/><path d="M1674.08,2804.9c5.1,-0 8.1,-0.75 10.65,-1.65l0,-10.5c-2.7,1.05 -5.7,1.65 -9.6,1.65c-6.3,-0 -9.75,-3.75 -9.75,-11.4l0,-47.1l18.3,-0l0,-10.5l-18.3,-0l0,-17.85l-12.45,-0l0,17.85l-11.25,-0l0,10.5l11.25,-0l0,48.3c0,12.3 6.9,20.7 21.15,20.7Z" style="fill:#ee536d;fill-rule:nonzero;"/><path d="M479.29,1879.74l9.113,-9.113l-11.436,-11.436l2.145,-2.144l17.913,4.959l9.649,-9.649l-20.862,-5.584c2.055,-4.646 1.921,-9.604 -2.635,-14.161l-0.179,-0.178c-6.745,-6.746 -14.786,-5.495 -23.139,2.858l-12.508,12.508l31.939,31.94Zm-8.264,-26.49l-7.683,-7.683l2.993,-2.993c2.948,-2.948 5.584,-3.529 8.175,-0.938l0.178,0.178c2.591,2.591 2.368,5.406 -0.714,8.488l-2.949,2.948Z" style="fill:#6b80a4;fill-rule:nonzero;"/><path d="M520.566,1839.54c7.058,-7.058 8.13,-14.116 3.574,-20.102l-7.505,7.505c1.251,1.876 1.34,4.199 -1.295,6.835c-2.859,2.859 -6.433,2.859 -9.739,-0l16.439,-16.439l-2.099,-2.1c-8.398,-8.398 -17.556,-6.566 -23.944,-0.178c-7.058,7.058 -7.907,17.377 -0.402,24.881l0.358,0.358c7.638,7.638 17.287,6.566 24.613,-0.76Zm-19.387,-10.363c-2.412,-3.217 -2.323,-6.433 0.089,-8.845c2.591,-2.591 5.54,-2.413 8.488,0.268l-8.577,8.577Z" style="fill:#6b80a4;fill-rule:nonzero;"/><path d="M545.225,1814.88c6.477,-6.477 8.085,-13.089 2.546,-18.628c-5.003,-5.003 -9.828,-3.574 -17.109,2.1c-3.216,2.501 -4.735,3.127 -5.852,2.01c-1.072,-1.072 -0.938,-2.725 0.804,-4.467c1.832,-1.832 3.44,-1.921 5.316,-0.67l7.237,-7.237c-6.12,-5.048 -12.106,-2.993 -17.869,2.77c-5.405,5.405 -7.505,12.507 -2.323,17.689c4.869,4.869 9.337,4.065 16.395,-1.385c3.663,-2.769 5.315,-3.35 6.432,-2.233c1.162,1.161 1.028,2.814 -0.938,4.78c-2.278,2.278 -3.976,2.099 -5.941,0.67l-7.371,7.37c5.361,5.004 12.017,3.887 18.673,-2.769Z" style="fill:#6b80a4;fill-rule:nonzero;"/><path d="M564.924,1783.3c-3.082,3.082 -6.834,2.456 -10.855,-1.564l-0.357,-0.357c-3.931,-3.931 -4.378,-7.684 -1.385,-10.677c3.038,-3.037 6.79,-2.412 10.721,1.519l0.358,0.358c3.886,3.886 4.511,7.728 1.518,10.721Zm5.897,5.985c7.192,-7.192 8.219,-17.332 0.625,-24.926l-0.357,-0.357c-7.415,-7.416 -17.556,-6.478 -24.748,0.714c-7.236,7.237 -8.085,17.556 -0.58,25.061l0.357,0.357c7.549,7.55 17.511,6.343 24.703,-0.849Z" style="fill:#6b80a4;fill-rule:nonzero;"/><path d="M594.765,1765.34c3.886,-3.886 4.422,-7.907 3.26,-11.57l3.619,3.618l7.996,-7.996l-23.363,-23.362l-7.996,7.996l13.446,13.446c2.993,2.992 2.859,5.985 0.447,8.398c-2.279,2.278 -4.601,2.01 -7.237,-0.626l-13.937,-13.937l-7.996,7.996l15.232,15.233c5.897,5.896 12.017,5.316 16.529,0.804Z" style="fill:#6b80a4;fill-rule:nonzero;"/><path d="M614.375,1744.65l7.996,-7.996l-11.078,-11.078c-3.753,-3.753 -2.591,-7.952 2.412,-12.687l-7.46,-7.46c-3.663,3.574 -4.601,7.55 -2.591,12.508l-4.646,-4.646l-7.996,7.996l23.363,23.363Z" style="fill:#6b80a4;fill-rule:nonzero;"/><path d="M644.841,1715.26c7.549,-7.55 7.683,-15.367 2.01,-21.487l-7.192,7.192c2.278,2.814 2.055,5.718 -0.179,7.952c-3.038,3.037 -6.701,2.501 -10.766,-1.564l-0.357,-0.357c-3.931,-3.931 -4.288,-7.594 -1.474,-10.409c2.323,-2.322 4.601,-2.188 7.147,-0.357l7.505,-7.505c-7.549,-6.656 -15.322,-3.886 -21.04,1.832c-6.879,6.879 -7.996,16.93 -0.223,24.703l0.357,0.357c7.862,7.862 17.243,6.611 24.212,-0.357Z" style="fill:#6b80a4;fill-rule:nonzero;"/><path d="M671.286,1688.82c7.058,-7.058 8.13,-14.116 3.573,-20.102l-7.504,7.504c1.25,1.877 1.34,4.2 -1.296,6.835c-2.859,2.859 -6.432,2.859 -9.738,0l16.439,-16.439l-2.1,-2.099c-8.398,-8.398 -17.555,-6.567 -23.943,-0.179c-7.058,7.058 -7.907,17.377 -0.402,24.882l0.357,0.357c7.639,7.639 17.288,6.567 24.614,-0.759Zm-19.387,-10.364c-2.413,-3.216 -2.323,-6.433 0.089,-8.845c2.591,-2.591 5.539,-2.412 8.487,0.268l-8.576,8.577Z" style="fill:#6b80a4;fill-rule:nonzero;"/><path d="M695.944,1664.16c6.477,-6.477 8.085,-13.088 2.546,-18.627c-5.003,-5.004 -9.827,-3.574 -17.109,2.099c-3.216,2.502 -4.735,3.127 -5.852,2.01c-1.072,-1.072 -0.938,-2.725 0.805,-4.467c1.831,-1.831 3.439,-1.921 5.315,-0.67l7.237,-7.236c-6.12,-5.048 -12.106,-2.993 -17.868,2.769c-5.405,5.405 -7.505,12.508 -2.323,17.69c4.869,4.869 9.336,4.065 16.394,-1.385c3.663,-2.77 5.316,-3.35 6.433,-2.234c1.161,1.162 1.027,2.815 -0.938,4.78c-2.279,2.278 -3.976,2.1 -5.942,0.67l-7.37,7.371c5.36,5.003 12.016,3.886 18.672,-2.77Z" style="fill:#6b80a4;fill-rule:nonzero;"/><path d="M767.342,756.115l22.782,22.782l7.058,-7.058l-13.67,-13.669l5.808,-5.808l10.319,10.319l6.522,-6.522l-10.319,-10.319l5.494,-5.494l12.955,12.955l7.058,-7.058l-22.068,-22.068l-31.939,31.94Z" style="fill:#6b80a4;fill-rule:nonzero;"/><path d="M793.965,782.739l7.997,7.996l13.535,-13.536c2.546,-2.546 5.36,-2.501 7.505,-0.357c1.831,1.832 1.831,4.154 -0.537,6.522l-13.937,13.937l7.907,7.907l13.535,-13.535c2.546,-2.546 5.361,-2.502 7.505,-0.358c1.831,1.832 1.831,4.155 -0.536,6.522l-13.937,13.938l7.996,7.996l15.277,-15.278c5.852,-5.852 5.495,-11.927 1.072,-16.349c-2.948,-2.948 -6.879,-4.557 -11.614,-3.842c1.429,-3.663 0.625,-7.147 -2.457,-10.23c-3.618,-3.618 -8.041,-4.109 -11.525,-3.126l3.573,-3.574l-7.996,-7.996l-23.363,23.363Z" style="fill:#6b80a4;fill-rule:nonzero;"/><path d="M835.777,824.551l7.996,7.996l23.363,-23.363l-7.996,-7.996l-23.363,23.363Zm29.573,-21.621c2.501,2.501 6.164,2.68 8.532,0.313c2.367,-2.368 2.233,-6.076 -0.268,-8.577c-2.502,-2.502 -6.165,-2.591 -8.532,-0.224c-2.368,2.368 -2.234,5.986 0.268,8.488Z" style="fill:#6b80a4;fill-rule:nonzero;"/><path d="M857.353,847.199c6.478,6.477 13.089,8.085 18.628,2.546c5.003,-5.003 3.574,-9.828 -2.099,-17.109c-2.502,-3.216 -3.127,-4.735 -2.011,-5.852c1.073,-1.072 2.725,-0.938 4.468,0.804c1.831,1.832 1.92,3.44 0.67,5.316l7.236,7.237c5.048,-6.12 2.993,-12.106 -2.769,-17.869c-5.405,-5.405 -12.508,-7.504 -17.69,-2.323c-4.869,4.87 -4.065,9.337 1.385,16.395c2.769,3.663 3.35,5.315 2.233,6.432c-1.161,1.162 -2.814,1.028 -4.779,-0.938c-2.279,-2.278 -2.1,-3.976 -0.67,-5.941l-7.371,-7.371c-5.003,5.361 -3.887,12.017 2.769,18.673Z" style="fill:#6b80a4;fill-rule:nonzero;"/><path d="M880.582,870.428c6.478,6.477 13.089,8.085 18.628,2.546c5.003,-5.003 3.574,-9.828 -2.099,-17.109c-2.502,-3.216 -3.127,-4.735 -2.011,-5.852c1.072,-1.072 2.725,-0.938 4.467,0.804c1.832,1.832 1.921,3.44 0.67,5.316l7.237,7.237c5.048,-6.12 2.993,-12.106 -2.769,-17.869c-5.406,-5.405 -12.508,-7.505 -17.69,-2.323c-4.869,4.869 -4.065,9.337 1.385,16.395c2.769,3.663 3.35,5.315 2.233,6.432c-1.161,1.162 -2.814,1.028 -4.78,-0.938c-2.278,-2.278 -2.099,-3.976 -0.67,-5.941l-7.37,-7.371c-5.003,5.361 -3.887,12.017 2.769,18.673Z" style="fill:#6b80a4;fill-rule:nonzero;"/><path d="M895.19,883.963l7.996,7.996l23.363,-23.363l-7.996,-7.996l-23.363,23.363Zm29.572,-21.621c2.501,2.502 6.164,2.68 8.532,0.313c2.367,-2.368 2.233,-6.075 -0.268,-8.577c-2.502,-2.502 -6.165,-2.591 -8.532,-0.223c-2.368,2.367 -2.234,5.986 0.268,8.487Z" style="fill:#6b80a4;fill-rule:nonzero;"/><path d="M925.119,903.082c-3.082,-3.082 -2.457,-6.835 1.564,-10.855l0.357,-0.357c3.931,-3.931 7.683,-4.378 10.676,-1.385c3.038,3.037 2.413,6.79 -1.518,10.721l-0.358,0.357c-3.886,3.886 -7.728,4.512 -10.721,1.519Zm-5.986,5.896c7.192,7.192 17.333,8.22 24.927,0.626l0.357,-0.357c7.415,-7.416 6.477,-17.556 -0.715,-24.748c-7.236,-7.237 -17.555,-8.086 -25.06,-0.581l-0.357,0.357c-7.55,7.55 -6.344,17.511 0.848,24.703Z" style="fill:#6b80a4;fill-rule:nonzero;"/><path d="M935.929,924.703l7.997,7.996l13.088,-13.089c2.993,-2.993 6.031,-2.814 8.398,-0.447c2.323,2.323 2.055,4.646 -0.58,7.282l-13.58,13.58l7.996,7.996l15.188,-15.188c5.986,-5.986 5.673,-11.927 1.161,-16.439c-3.886,-3.887 -8.398,-4.467 -12.061,-3.306l3.752,-3.752l-7.996,-7.996l-23.363,23.363Z" style="fill:#6b80a4;fill-rule:nonzero;"/><path d="M972.426,962.271c6.477,6.477 13.088,8.085 18.627,2.546c5.003,-5.003 3.574,-9.828 -2.099,-17.109c-2.502,-3.216 -3.127,-4.735 -2.01,-5.852c1.072,-1.072 2.725,-0.938 4.467,0.804c1.831,1.832 1.921,3.44 0.67,5.316l7.236,7.237c5.048,-6.12 2.993,-12.106 -2.769,-17.869c-5.405,-5.405 -12.508,-7.504 -17.69,-2.322c-4.869,4.869 -4.065,9.336 1.385,16.394c2.77,3.663 3.35,5.316 2.234,6.432c-1.162,1.162 -2.815,1.028 -4.78,-0.938c-2.278,-2.278 -2.1,-3.975 -0.67,-5.941l-7.371,-7.371c-5.003,5.361 -3.886,12.017 2.77,18.673Z" style="fill:#6b80a4;fill-rule:nonzero;"/><path d="M1724.18,1722.48l22.782,22.782l7.058,-7.058l-13.669,-13.669l5.807,-5.807l10.319,10.319l6.522,-6.522l-10.319,-10.319l5.495,-5.494l12.954,12.954l7.058,-7.058l-22.067,-22.067l-31.94,31.939Z" style="fill:#6b80a4;fill-rule:nonzero;"/><path d="M1750.81,1749.1l7.996,7.996l13.088,-13.088c2.993,-2.993 6.031,-2.815 8.399,-0.447c2.323,2.323 2.054,4.646 -0.581,7.281l-13.58,13.58l7.996,7.996l15.188,-15.188c5.986,-5.986 5.673,-11.927 1.162,-16.439c-3.887,-3.886 -8.399,-4.467 -12.062,-3.305l3.753,-3.753l-7.996,-7.996l-23.363,23.363Z" style="fill:#6b80a4;fill-rule:nonzero;"/><path d="M1789.58,1788.95c7.058,7.058 14.116,8.13 20.102,3.573l-7.505,-7.504c-1.876,1.25 -4.199,1.34 -6.834,-1.296c-2.859,-2.859 -2.859,-6.433 -0,-9.738l16.439,16.439l2.099,-2.1c8.398,-8.398 6.567,-17.555 0.179,-23.943c-7.058,-7.058 -17.377,-7.907 -24.882,-0.402l-0.357,0.357c-7.639,7.639 -6.567,17.288 0.759,24.614Zm10.364,-19.388c3.216,-2.412 6.432,-2.322 8.845,0.09c2.591,2.591 2.412,5.539 -0.268,8.487l-8.577,-8.577Z" style="fill:#6b80a4;fill-rule:nonzero;"/><path d="M1805.39,1803.69l7.996,7.996l11.078,-11.078c3.752,-3.753 7.952,-2.591 12.687,2.412l7.46,-7.46c-3.574,-3.663 -7.55,-4.601 -12.508,-2.591l4.646,-4.646l-7.996,-7.996l-23.363,23.363Z" style="fill:#6b80a4;fill-rule:nonzero;"/><path d="M1826.57,1842.19c8.353,8.354 16.617,9.292 23.586,2.323l21.397,-21.397l-7.996,-7.996l-3.306,3.305c1.028,-3.707 0.403,-7.46 -3.305,-11.167c-5.495,-5.495 -14.295,-5.54 -21.174,1.34l-0.358,0.357c-7.192,7.192 -6.745,15.68 -1.295,21.129c3.484,3.485 8.085,3.976 11.525,2.949l-3.574,3.573c-2.903,2.904 -6.343,3.485 -9.872,-0.044c-2.903,-2.904 -2.591,-5.271 -1.251,-7.326l-7.951,-7.952c-4.69,5.942 -4.378,12.955 3.574,20.906Zm16.26,-15.188c-2.859,-2.859 -2.502,-6.611 0.715,-9.827l0.357,-0.358c3.216,-3.216 6.924,-3.707 9.917,-0.715c2.948,2.949 2.546,6.656 -0.67,9.873l-0.313,0.312c-3.306,3.306 -7.147,3.574 -10.006,0.715Z" style="fill:#6b80a4;fill-rule:nonzero;"/><path d="M1848.55,1862.48l7.638,7.639l43.689,-18.673l-7.639,-7.639l-16.93,7.996l7.638,-17.287l-8.666,-8.666l-11.659,30.331l-14.071,6.299Z" style="fill:#6b80a4;fill-rule:nonzero;"/><path d="M1381.02,978.01l8.935,-8.934l-15.323,-25.239l25.195,15.366l9.559,-9.559l-24.479,-39.4l-8.488,8.488l15.769,24.435l-24.748,-15.457l-8.13,8.131l15.635,24.211l-24.033,-15.813l-9.247,9.247l39.355,24.524Z" style="fill:#6b80a4;fill-rule:nonzero;"/><path d="M1424.93,935.171c3.752,-3.753 4.244,-7.371 3.663,-10.185l2.725,2.724l7.773,-7.772l-15.144,-15.144c-6.209,-6.209 -12.954,-4.735 -19.387,1.698c-6.388,6.388 -8.041,13.58 -2.77,19.566l7.505,-7.505c-1.295,-1.653 -1.787,-3.752 0.402,-5.941c2.546,-2.547 4.557,-1.608 6.79,0.625l0.536,0.536l-2.233,2.234c-7.773,7.772 -10.275,14.562 -4.78,20.057c4.958,4.958 10.721,3.306 14.92,-0.893Zm-2.636,-8.175c-1.876,1.876 -3.618,1.921 -4.958,0.58c-1.921,-1.92 -1.117,-3.975 2.099,-7.192l2.1,-2.099l1.429,1.429c2.011,2.011 1.609,5.004 -0.67,7.282Z" style="fill:#6b80a4;fill-rule:nonzero;"/><path d="M1453.34,906.76c6.477,-6.477 8.085,-13.089 2.546,-18.628c-5.003,-5.003 -9.828,-3.574 -17.109,2.1c-3.216,2.501 -4.735,3.127 -5.852,2.01c-1.072,-1.072 -0.938,-2.725 0.804,-4.467c1.832,-1.832 3.44,-1.921 5.316,-0.67l7.237,-7.237c-6.12,-5.048 -12.106,-2.993 -17.869,2.77c-5.405,5.405 -7.504,12.507 -2.323,17.689c4.869,4.869 9.337,4.065 16.395,-1.385c3.663,-2.769 5.315,-3.35 6.432,-2.233c1.162,1.161 1.028,2.814 -0.938,4.78c-2.278,2.278 -3.976,2.099 -5.941,0.67l-7.371,7.37c5.361,5.004 12.017,3.887 18.673,-2.769Z" style="fill:#6b80a4;fill-rule:nonzero;"/><path d="M1476.48,883.62c1.876,-1.876 2.993,-3.797 3.752,-5.092l-6.075,-6.075c-0.447,0.982 -0.983,1.786 -1.876,2.68c-1.519,1.519 -3.127,1.608 -4.824,-0.089l-9.649,-9.649l4.601,-4.601l-5.45,-5.45l-4.601,4.601l-4.869,-4.869l-7.996,7.996l4.869,4.869l-2.815,2.814l5.45,5.45l2.815,-2.814l10.408,10.408c5.494,5.495 10.989,5.092 16.26,-0.179Z" style="fill:#6b80a4;fill-rule:nonzero;"/><path d="M1496,864.099c7.058,-7.058 8.13,-14.116 3.574,-20.102l-7.505,7.505c1.251,1.876 1.34,4.199 -1.295,6.835c-2.859,2.859 -6.433,2.859 -9.739,-0l16.439,-16.439l-2.099,-2.1c-8.398,-8.398 -17.556,-6.566 -23.944,-0.178c-7.058,7.058 -7.906,17.376 -0.402,24.881l0.358,0.358c7.638,7.638 17.287,6.566 24.613,-0.76Zm-19.387,-10.363c-2.412,-3.217 -2.323,-6.433 0.089,-8.845c2.591,-2.591 5.54,-2.413 8.488,0.268l-8.577,8.577Z" style="fill:#6b80a4;fill-rule:nonzero;"/><g><path d="M1322.58,1130.24l0,186.409" style="fill:none;fill-rule:nonzero;stroke:#6b80a4;stroke-width:0.5px;stroke-linecap:round;stroke-miterlimit:10;"/><path d="M1144.61,1232.98l-0,186.409" style="fill:none;fill-rule:nonzero;stroke:#6b80a4;stroke-width:3.96px;stroke-linecap:round;stroke-miterlimit:10;"/><path d="M1144.61,1419.39l-177.967,-102.749" style="fill:none;fill-rule:nonzero;stroke:#6b80a4;stroke-width:0.5px;stroke-linecap:round;stroke-miterlimit:10;"/><path d="M966.641,1130.24l88.983,-51.375" style="fill:none;fill-rule:nonzero;stroke:#6b80a4;stroke-width:0.5px;stroke-linecap:round;stroke-miterlimit:10;"/><path d="M1144.61,1232.98l177.967,-102.749" style="fill:none;fill-rule:nonzero;stroke:#6b80a4;stroke-width:3.96px;stroke-linecap:round;stroke-miterlimit:10;"/><path d="M1055.62,1078.86l88.984,154.124" style="fill:none;fill-rule:nonzero;stroke:#6b80a4;stroke-width:3.96px;stroke-linecap:round;stroke-miterlimit:10;"/><path d="M1055.62,1078.86l177.967,-102.75" style="fill:none;fill-rule:nonzero;stroke:#6b80a4;stroke-width:0.5px;stroke-linecap:round;stroke-miterlimit:10;"/><path d="M966.641,1316.64l-0,-186.409" style="fill:none;fill-rule:nonzero;stroke:#6b80a4;stroke-width:0.5px;stroke-linecap:round;stroke-miterlimit:10;"/><path d="M1144.61,1419.39l177.967,-102.749" style="fill:none;fill-rule:nonzero;stroke:#6b80a4;stroke-width:0.5px;stroke-linecap:round;stroke-miterlimit:10;"/><path d="M1233.59,976.11l88.984,154.125" style="fill:none;fill-rule:nonzero;stroke:#6b80a4;stroke-width:0.5px;stroke-linecap:round;stroke-miterlimit:10;"/><path d="M1322.58,1130.24l0,186.409" style="fill:none;fill-rule:nonzero;stroke:#6b80a4;stroke-width:6px;stroke-linecap:round;stroke-miterlimit:10;"/><path d="M966.641,1316.64l-0,-186.409" style="fill:none;fill-rule:nonzero;stroke:#6b80a4;stroke-width:6px;stroke-linecap:round;stroke-miterlimit:10;"/><path d="M1144.61,1419.39l177.967,-102.749" style="fill:none;fill-rule:nonzero;stroke:#6b80a4;stroke-width:6px;stroke-linecap:round;stroke-miterlimit:10;"/><path d="M966.641,1130.24l88.983,-51.375" style="fill:none;fill-rule:nonzero;stroke:#6b80a4;stroke-width:6px;stroke-linecap:round;stroke-miterlimit:10;"/><path d="M1233.59,976.11l88.984,154.125" style="fill:none;fill-rule:nonzero;stroke:#6b80a4;stroke-width:6px;stroke-linecap:round;stroke-miterlimit:10;"/><path d="M1055.62,1078.86l177.967,-102.75" style="fill:none;fill-rule:nonzero;stroke:#6b80a4;stroke-width:6px;stroke-linecap:round;stroke-miterlimit:10;"/><path d="M1144.61,1419.39l-177.967,-102.749" style="fill:none;fill-rule:nonzero;stroke:#6b80a4;stroke-width:6px;stroke-linecap:round;stroke-miterlimit:10;"/></g><g><g id="Window"><g id="Crease"></g><g id="Silhouette"></g></g><g id="Window1" serif:id="Window"><g id="Crease1" serif:id="Crease"></g><g id="Silhouette1" serif:id="Silhouette"></g></g><g id="Window2" serif:id="Window"></g></g></svg>